<svg width="540" height="600" viewBox="0 0 540 600" fill="none" xmlns="http://www.w3.org/2000/svg">
<rect width="540" height="600" fill="white"/>
<rect x="40" y="36" width="85" height="24" rx="6" fill="#E2E3EA"/>
<rect x="133" y="36" width="85" height="24" rx="6" fill="#E2E3EA"/>
<rect x="226" y="36" width="85" height="24" rx="6" fill="#3D68FB"/>
<rect x="319" y="36" width="85" height="24" rx="6" fill="#E2E3EA"/>
<rect x="40" y="106" width="216" height="18" rx="9" fill="#D4D6DF"/>
<path d="M43.288 189.368L42.364 187.592H42.328V194H41.032V185.624H42.544L45.28 190.256L46.204 192.032H46.24V185.624H47.536V194H46.024L43.288 189.368ZM54.0744 194C53.7304 194 53.4664 193.904 53.2824 193.712C53.0984 193.512 52.9864 193.26 52.9464 192.956H52.8864C52.7664 193.348 52.5464 193.644 52.2264 193.844C51.9064 194.044 51.5184 194.144 51.0624 194.144C50.4144 194.144 49.9144 193.976 49.5624 193.64C49.2184 193.304 49.0464 192.852 49.0464 192.284C49.0464 191.66 49.2704 191.192 49.7184 190.88C50.1744 190.568 50.8384 190.412 51.7104 190.412H52.8384V189.884C52.8384 189.5 52.7344 189.204 52.5264 188.996C52.3184 188.788 51.9944 188.684 51.5544 188.684C51.1864 188.684 50.8864 188.764 50.6544 188.924C50.4224 189.084 50.2264 189.288 50.0664 189.536L49.2864 188.828C49.4944 188.476 49.7864 188.188 50.1624 187.964C50.5384 187.732 51.0304 187.616 51.6384 187.616C52.4464 187.616 53.0664 187.804 53.4984 188.18C53.9304 188.556 54.1464 189.096 54.1464 189.8V192.932H54.8064V194H54.0744ZM51.4344 193.148C51.8424 193.148 52.1784 193.06 52.4424 192.884C52.7064 192.7 52.8384 192.456 52.8384 192.152V191.252H51.7344C50.8304 191.252 50.3784 191.532 50.3784 192.092V192.308C50.3784 192.588 50.4704 192.8 50.6544 192.944C50.8464 193.08 51.1064 193.148 51.4344 193.148ZM56.0883 194V187.76H57.3963V188.792H57.4563C57.5203 188.632 57.5963 188.48 57.6843 188.336C57.7803 188.192 57.8923 188.068 58.0203 187.964C58.1563 187.852 58.3123 187.768 58.4883 187.712C58.6723 187.648 58.8843 187.616 59.1243 187.616C59.5483 187.616 59.9243 187.72 60.2523 187.928C60.5803 188.136 60.8203 188.456 60.9723 188.888H61.0083C61.1203 188.536 61.3363 188.236 61.6563 187.988C61.9763 187.74 62.3883 187.616 62.8923 187.616C63.5163 187.616 64.0003 187.828 64.3443 188.252C64.6883 188.668 64.8603 189.264 64.8603 190.04V194H63.5523V190.196C63.5523 189.716 63.4603 189.356 63.2763 189.116C63.0923 188.868 62.8003 188.744 62.4003 188.744C62.2323 188.744 62.0723 188.768 61.9203 188.816C61.7683 188.856 61.6323 188.92 61.5123 189.008C61.4003 189.096 61.3083 189.208 61.2363 189.344C61.1643 189.48 61.1283 189.636 61.1283 189.812V194H59.8203V190.196C59.8203 189.228 59.4403 188.744 58.6803 188.744C58.5203 188.744 58.3603 188.768 58.2003 188.816C58.0483 188.856 57.9123 188.92 57.7923 189.008C57.6723 189.096 57.5763 189.208 57.5043 189.344C57.4323 189.48 57.3963 189.636 57.3963 189.812V194H56.0883ZM69.1184 194.144C68.6704 194.144 68.2704 194.068 67.9184 193.916C67.5664 193.764 67.2664 193.548 67.0184 193.268C66.7704 192.98 66.5784 192.636 66.4424 192.236C66.3144 191.828 66.2504 191.376 66.2504 190.88C66.2504 190.384 66.3144 189.936 66.4424 189.536C66.5784 189.128 66.7704 188.784 67.0184 188.504C67.2664 188.216 67.5664 187.996 67.9184 187.844C68.2704 187.692 68.6704 187.616 69.1184 187.616C69.5744 187.616 69.9744 187.696 70.3184 187.856C70.6704 188.016 70.9624 188.24 71.1944 188.528C71.4264 188.808 71.5984 189.136 71.7104 189.512C71.8304 189.888 71.8904 190.292 71.8904 190.724V191.216H67.6064V191.42C67.6064 191.9 67.7464 192.296 68.0264 192.608C68.3144 192.912 68.7224 193.064 69.2504 193.064C69.6344 193.064 69.9584 192.98 70.2224 192.812C70.4864 192.644 70.7104 192.416 70.8944 192.128L71.6624 192.884C71.4304 193.268 71.0944 193.576 70.6544 193.808C70.2144 194.032 69.7024 194.144 69.1184 194.144ZM69.1184 188.636C68.8944 188.636 68.6864 188.676 68.4944 188.756C68.3104 188.836 68.1504 188.948 68.0144 189.092C67.8864 189.236 67.7864 189.408 67.7144 189.608C67.6424 189.808 67.6064 190.028 67.6064 190.268V190.352H70.5104V190.232C70.5104 189.752 70.3864 189.368 70.1384 189.08C69.8904 188.784 69.5504 188.636 69.1184 188.636Z" fill="#0D1427"/>
<rect x="40" y="206" width="144" height="36" rx="4" fill="#ECEDF3"/>
<rect x="192" y="206" width="144" height="36" rx="4" fill="#ECEDF3"/>
<path d="M357.032 185.624H359.996C360.532 185.624 361.016 185.712 361.448 185.888C361.888 186.064 362.26 186.328 362.564 186.68C362.876 187.024 363.116 187.46 363.284 187.988C363.452 188.508 363.536 189.116 363.536 189.812C363.536 190.508 363.452 191.12 363.284 191.648C363.116 192.168 362.876 192.604 362.564 192.956C362.26 193.3 361.888 193.56 361.448 193.736C361.016 193.912 360.532 194 359.996 194H357.032V185.624ZM359.996 192.8C360.62 192.8 361.124 192.604 361.508 192.212C361.892 191.82 362.084 191.244 362.084 190.484V189.14C362.084 188.38 361.892 187.804 361.508 187.412C361.124 187.02 360.62 186.824 359.996 186.824H358.388V192.8H359.996ZM369.699 194C369.355 194 369.091 193.904 368.907 193.712C368.723 193.512 368.611 193.26 368.571 192.956H368.511C368.391 193.348 368.171 193.644 367.851 193.844C367.531 194.044 367.143 194.144 366.687 194.144C366.039 194.144 365.539 193.976 365.187 193.64C364.843 193.304 364.671 192.852 364.671 192.284C364.671 191.66 364.895 191.192 365.343 190.88C365.799 190.568 366.463 190.412 367.335 190.412H368.463V189.884C368.463 189.5 368.359 189.204 368.151 188.996C367.943 188.788 367.619 188.684 367.179 188.684C366.811 188.684 366.511 188.764 366.279 188.924C366.047 189.084 365.851 189.288 365.691 189.536L364.911 188.828C365.119 188.476 365.411 188.188 365.787 187.964C366.163 187.732 366.655 187.616 367.263 187.616C368.071 187.616 368.691 187.804 369.123 188.18C369.555 188.556 369.771 189.096 369.771 189.8V192.932H370.431V194H369.699ZM367.059 193.148C367.467 193.148 367.803 193.06 368.067 192.884C368.331 192.7 368.463 192.456 368.463 192.152V191.252H367.359C366.455 191.252 366.003 191.532 366.003 192.092V192.308C366.003 192.588 366.095 192.8 366.279 192.944C366.471 193.08 366.731 193.148 367.059 193.148ZM373.406 194C372.95 194 372.606 193.884 372.374 193.652C372.142 193.412 372.026 193.076 372.026 192.644V188.828H371.054V187.76H371.582C371.798 187.76 371.946 187.712 372.026 187.616C372.114 187.52 372.158 187.364 372.158 187.148V186.056H373.334V187.76H374.642V188.828H373.334V192.932H374.546V194H373.406ZM378.462 194.144C378.014 194.144 377.614 194.068 377.262 193.916C376.91 193.764 376.61 193.548 376.362 193.268C376.114 192.98 375.922 192.636 375.786 192.236C375.658 191.828 375.594 191.376 375.594 190.88C375.594 190.384 375.658 189.936 375.786 189.536C375.922 189.128 376.114 188.784 376.362 188.504C376.61 188.216 376.91 187.996 377.262 187.844C377.614 187.692 378.014 187.616 378.462 187.616C378.918 187.616 379.318 187.696 379.662 187.856C380.014 188.016 380.306 188.24 380.538 188.528C380.77 188.808 380.942 189.136 381.054 189.512C381.174 189.888 381.234 190.292 381.234 190.724V191.216H376.95V191.42C376.95 191.9 377.09 192.296 377.37 192.608C377.658 192.912 378.066 193.064 378.594 193.064C378.978 193.064 379.302 192.98 379.566 192.812C379.83 192.644 380.054 192.416 380.238 192.128L381.006 192.884C380.774 193.268 380.438 193.576 379.998 193.808C379.558 194.032 379.046 194.144 378.462 194.144ZM378.462 188.636C378.238 188.636 378.03 188.676 377.838 188.756C377.654 188.836 377.494 188.948 377.358 189.092C377.23 189.236 377.13 189.408 377.058 189.608C376.986 189.808 376.95 190.028 376.95 190.268V190.352H379.854V190.232C379.854 189.752 379.73 189.368 379.482 189.08C379.234 188.784 378.894 188.636 378.462 188.636Z" fill="#0D1427"/>
<rect x="356" y="206" width="144" height="36" rx="4" fill="#ECEDF3"/>
<rect x="40" y="274" width="332" height="10" rx="5" fill="#F29CB1"/>
<circle cx="49" cy="377" r="8.5" fill="white" stroke="#3D68FB"/>
<circle cx="49" cy="377" r="4.5" fill="#3D68FB" stroke="#3D68FB"/>
<rect x="68" y="372" width="117" height="10" rx="5" fill="#9BB0FB"/>
<circle cx="49" cy="347" r="8.5" fill="white" stroke="#BCBEC0"/>
<rect x="68" y="342" width="117" height="10" rx="5" fill="#DFE1E9"/>
<circle cx="49" cy="407" r="8.5" fill="white" stroke="#BCBEC0"/>
<rect x="68" y="402" width="117" height="10" rx="5" fill="#DFE1E9"/>
<circle cx="49" cy="437" r="8.5" fill="white" stroke="#BCBEC0"/>
<rect x="68" y="432" width="117" height="10" rx="5" fill="#DFE1E9"/>
<circle cx="274" cy="347" r="8.5" fill="white" stroke="#BCBEC0"/>
<rect x="293" y="342" width="117" height="10" rx="5" fill="#DFE1E9"/>
<circle cx="274" cy="377" r="8.5" fill="white" stroke="#BCBEC0"/>
<rect x="293" y="372" width="117" height="10" rx="5" fill="#DFE1E9"/>
<circle cx="274" cy="407" r="8.5" fill="white" stroke="#BCBEC0"/>
<rect x="293" y="402" width="117" height="10" rx="5" fill="#DFE1E9"/>
<circle cx="274" cy="437" r="8.5" fill="white" stroke="#BCBEC0"/>
<rect x="293" y="432" width="117" height="10" rx="5" fill="#DFE1E9"/>
<circle cx="274" cy="317" r="8.5" fill="white" stroke="#BCBEC0"/>
<rect x="293" y="312" width="117" height="10" rx="5" fill="#DFE1E9"/>
<circle cx="49" cy="317" r="8.5" fill="white" stroke="#BCBEC0"/>
<rect x="68" y="312" width="117" height="10" rx="5" fill="#DFE1E9"/>
<line opacity="0.4" y1="79.5" x2="540" y2="79.5" stroke="#C9CBD3"/>
<rect x="40" y="138" width="396" height="12" rx="6" fill="#DFE1E9"/>
<path d="M40.784 486V484.712H42.114V477.516H40.784V476.228H45.04V477.516H43.696V484.712H45.04V486H40.784ZM47.2942 479.966H46.1882V478.72H47.2942V477.516C47.2942 476.928 47.4482 476.471 47.7562 476.144C48.0642 475.808 48.5262 475.64 49.1422 475.64H50.3462V476.886H48.8202V478.72H50.3462V479.966H48.8202V486H47.2942V479.966ZM59.4486 478.72H60.9186L57.8526 487.442C57.7686 487.685 57.6706 487.89 57.5586 488.058C57.456 488.235 57.33 488.375 57.1806 488.478C57.0406 488.59 56.868 488.669 56.6626 488.716C56.4573 488.772 56.2146 488.8 55.9346 488.8H55.0526V487.554H56.2846L56.7046 486.322L54.0586 478.72H55.5846L57.0406 483.004L57.4606 484.586H57.5306L57.9926 483.004L59.4486 478.72ZM64.948 486.168C64.444 486.168 63.982 486.079 63.562 485.902C63.1513 485.725 62.8013 485.473 62.512 485.146C62.2227 484.81 61.9987 484.409 61.84 483.942C61.6813 483.466 61.602 482.939 61.602 482.36C61.602 481.781 61.6813 481.259 61.84 480.792C61.9987 480.316 62.2227 479.915 62.512 479.588C62.8013 479.252 63.1513 478.995 63.562 478.818C63.982 478.641 64.444 478.552 64.948 478.552C65.452 478.552 65.9093 478.641 66.32 478.818C66.74 478.995 67.0947 479.252 67.384 479.588C67.6733 479.915 67.8973 480.316 68.056 480.792C68.2147 481.259 68.294 481.781 68.294 482.36C68.294 482.939 68.2147 483.466 68.056 483.942C67.8973 484.409 67.6733 484.81 67.384 485.146C67.0947 485.473 66.74 485.725 66.32 485.902C65.9093 486.079 65.452 486.168 64.948 486.168ZM64.948 484.908C65.4707 484.908 65.8907 484.749 66.208 484.432C66.5253 484.105 66.684 483.62 66.684 482.976V481.744C66.684 481.1 66.5253 480.619 66.208 480.302C65.8907 479.975 65.4707 479.812 64.948 479.812C64.4253 479.812 64.0053 479.975 63.688 480.302C63.3707 480.619 63.212 481.1 63.212 481.744V482.976C63.212 483.62 63.3707 484.105 63.688 484.432C64.0053 484.749 64.4253 484.908 64.948 484.908ZM74.4043 484.796H74.3483C74.283 484.973 74.1943 485.146 74.0823 485.314C73.9797 485.482 73.8443 485.631 73.6763 485.762C73.5177 485.883 73.3217 485.981 73.0883 486.056C72.8643 486.131 72.603 486.168 72.3043 486.168C71.5483 486.168 70.9603 485.925 70.5403 485.44C70.1297 484.955 69.9243 484.259 69.9243 483.354V478.72H71.4503V483.158C71.4503 484.287 71.917 484.852 72.8503 484.852C73.0463 484.852 73.2377 484.829 73.4243 484.782C73.611 484.726 73.7743 484.647 73.9143 484.544C74.0637 484.441 74.1803 484.311 74.2643 484.152C74.3577 483.993 74.4043 483.807 74.4043 483.592V478.72H75.9303V486H74.4043V484.796ZM79.1628 475.5C79.5175 475.5 79.7741 475.584 79.9328 475.752C80.0915 475.92 80.1708 476.139 80.1708 476.41V476.648C80.1708 476.872 80.1381 477.105 80.0728 477.348C80.0075 477.581 79.9141 477.815 79.7928 478.048C79.6715 478.281 79.5268 478.505 79.3588 478.72C79.1908 478.935 79.0041 479.126 78.7988 479.294H77.7068C78.0055 479.005 78.2481 478.72 78.4348 478.44C78.6215 478.16 78.7661 477.857 78.8688 477.53C78.6261 477.483 78.4441 477.381 78.3228 477.222C78.2108 477.063 78.1548 476.877 78.1548 476.662V476.41C78.1548 476.139 78.2341 475.92 78.3928 475.752C78.5515 475.584 78.8081 475.5 79.1628 475.5ZM81.6428 486V478.72H83.1688V480.12H83.2388C83.3414 479.747 83.5561 479.42 83.8828 479.14C84.2094 478.86 84.6621 478.72 85.2408 478.72H85.6468V480.19H85.0448C84.4381 480.19 83.9714 480.288 83.6448 480.484C83.3274 480.68 83.1688 480.969 83.1688 481.352V486H81.6428ZM89.7898 486.168C89.2671 486.168 88.8005 486.079 88.3898 485.902C87.9791 485.725 87.6291 485.473 87.3398 485.146C87.0505 484.81 86.8265 484.409 86.6678 483.942C86.5185 483.466 86.4438 482.939 86.4438 482.36C86.4438 481.781 86.5185 481.259 86.6678 480.792C86.8265 480.316 87.0505 479.915 87.3398 479.588C87.6291 479.252 87.9791 478.995 88.3898 478.818C88.8005 478.641 89.2671 478.552 89.7898 478.552C90.3218 478.552 90.7885 478.645 91.1898 478.832C91.6005 479.019 91.9411 479.28 92.2118 479.616C92.4825 479.943 92.6831 480.325 92.8138 480.764C92.9538 481.203 93.0238 481.674 93.0238 482.178V482.752H88.0258V482.99C88.0258 483.55 88.1891 484.012 88.5158 484.376C88.8518 484.731 89.3278 484.908 89.9438 484.908C90.3918 484.908 90.7698 484.81 91.0778 484.614C91.3858 484.418 91.6471 484.152 91.8618 483.816L92.7578 484.698C92.4871 485.146 92.0951 485.505 91.5818 485.776C91.0685 486.037 90.4711 486.168 89.7898 486.168ZM89.7898 479.742C89.5285 479.742 89.2858 479.789 89.0618 479.882C88.8471 479.975 88.6605 480.106 88.5018 480.274C88.3525 480.442 88.2358 480.643 88.1518 480.876C88.0678 481.109 88.0258 481.366 88.0258 481.646V481.744H91.4138V481.604C91.4138 481.044 91.2691 480.596 90.9798 480.26C90.6905 479.915 90.2938 479.742 89.7898 479.742ZM98.0217 486V478.72H99.5477V479.924H99.6177C99.7764 479.532 100.014 479.205 100.332 478.944C100.658 478.683 101.102 478.552 101.662 478.552C102.408 478.552 102.987 478.799 103.398 479.294C103.818 479.779 104.028 480.475 104.028 481.38V486H102.502V481.576C102.502 480.437 102.044 479.868 101.13 479.868C100.934 479.868 100.738 479.896 100.542 479.952C100.355 479.999 100.187 480.073 100.038 480.176C99.8884 480.279 99.767 480.409 99.6737 480.568C99.5897 480.727 99.5477 480.913 99.5477 481.128V486H98.0217ZM108.999 486.168C108.495 486.168 108.033 486.079 107.613 485.902C107.202 485.725 106.852 485.473 106.563 485.146C106.273 484.81 106.049 484.409 105.891 483.942C105.732 483.466 105.653 482.939 105.653 482.36C105.653 481.781 105.732 481.259 105.891 480.792C106.049 480.316 106.273 479.915 106.563 479.588C106.852 479.252 107.202 478.995 107.613 478.818C108.033 478.641 108.495 478.552 108.999 478.552C109.503 478.552 109.96 478.641 110.371 478.818C110.791 478.995 111.145 479.252 111.435 479.588C111.724 479.915 111.948 480.316 112.107 480.792C112.265 481.259 112.345 481.781 112.345 482.36C112.345 482.939 112.265 483.466 112.107 483.942C111.948 484.409 111.724 484.81 111.435 485.146C111.145 485.473 110.791 485.725 110.371 485.902C109.96 486.079 109.503 486.168 108.999 486.168ZM108.999 484.908C109.521 484.908 109.941 484.749 110.259 484.432C110.576 484.105 110.735 483.62 110.735 482.976V481.744C110.735 481.1 110.576 480.619 110.259 480.302C109.941 479.975 109.521 479.812 108.999 479.812C108.476 479.812 108.056 479.975 107.739 480.302C107.421 480.619 107.263 481.1 107.263 481.744V482.976C107.263 483.62 107.421 484.105 107.739 484.432C108.056 484.749 108.476 484.908 108.999 484.908ZM116.02 486C115.488 486 115.087 485.865 114.816 485.594C114.545 485.314 114.41 484.922 114.41 484.418V479.966H113.276V478.72H113.892C114.144 478.72 114.317 478.664 114.41 478.552C114.513 478.44 114.564 478.258 114.564 478.006V476.732H115.936V478.72H117.462V479.966H115.936V484.754H117.35V486H116.02ZM124.736 486.168C124.045 486.168 123.467 486.047 123 485.804C122.533 485.561 122.127 485.225 121.782 484.796L122.762 483.9C123.033 484.227 123.331 484.483 123.658 484.67C123.994 484.847 124.381 484.936 124.82 484.936C125.268 484.936 125.599 484.852 125.814 484.684C126.038 484.507 126.15 484.264 126.15 483.956C126.15 483.723 126.071 483.527 125.912 483.368C125.763 483.2 125.497 483.093 125.114 483.046L124.442 482.962C123.695 482.869 123.107 482.654 122.678 482.318C122.258 481.973 122.048 481.464 122.048 480.792C122.048 480.437 122.113 480.125 122.244 479.854C122.375 479.574 122.557 479.341 122.79 479.154C123.033 478.958 123.317 478.809 123.644 478.706C123.98 478.603 124.349 478.552 124.75 478.552C125.403 478.552 125.935 478.655 126.346 478.86C126.766 479.065 127.139 479.35 127.466 479.714L126.528 480.61C126.341 480.386 126.094 480.195 125.786 480.036C125.487 479.868 125.142 479.784 124.75 479.784C124.33 479.784 124.017 479.868 123.812 480.036C123.616 480.204 123.518 480.423 123.518 480.694C123.518 480.974 123.607 481.184 123.784 481.324C123.961 481.464 124.246 481.567 124.638 481.632L125.31 481.716C126.113 481.837 126.696 482.075 127.06 482.43C127.433 482.775 127.62 483.242 127.62 483.83C127.62 484.185 127.55 484.507 127.41 484.796C127.279 485.076 127.088 485.319 126.836 485.524C126.584 485.729 126.281 485.888 125.926 486C125.571 486.112 125.175 486.168 124.736 486.168ZM133.754 484.796H133.698C133.633 484.973 133.544 485.146 133.432 485.314C133.329 485.482 133.194 485.631 133.026 485.762C132.867 485.883 132.671 485.981 132.438 486.056C132.214 486.131 131.953 486.168 131.654 486.168C130.898 486.168 130.31 485.925 129.89 485.44C129.479 484.955 129.274 484.259 129.274 483.354V478.72H130.8V483.158C130.8 484.287 131.267 484.852 132.2 484.852C132.396 484.852 132.587 484.829 132.774 484.782C132.961 484.726 133.124 484.647 133.264 484.544C133.413 484.441 133.53 484.311 133.614 484.152C133.707 483.993 133.754 483.807 133.754 483.592V478.72H135.28V486H133.754V484.796ZM137.465 486V478.72H138.991V480.12H139.061C139.164 479.747 139.378 479.42 139.705 479.14C140.032 478.86 140.484 478.72 141.063 478.72H141.469V480.19H140.867C140.26 480.19 139.794 480.288 139.467 480.484C139.15 480.68 138.991 480.969 138.991 481.352V486H137.465ZM145.612 486.168C145.089 486.168 144.623 486.079 144.212 485.902C143.801 485.725 143.451 485.473 143.162 485.146C142.873 484.81 142.649 484.409 142.49 483.942C142.341 483.466 142.266 482.939 142.266 482.36C142.266 481.781 142.341 481.259 142.49 480.792C142.649 480.316 142.873 479.915 143.162 479.588C143.451 479.252 143.801 478.995 144.212 478.818C144.623 478.641 145.089 478.552 145.612 478.552C146.144 478.552 146.611 478.645 147.012 478.832C147.423 479.019 147.763 479.28 148.034 479.616C148.305 479.943 148.505 480.325 148.636 480.764C148.776 481.203 148.846 481.674 148.846 482.178V482.752H143.848V482.99C143.848 483.55 144.011 484.012 144.338 484.376C144.674 484.731 145.15 484.908 145.766 484.908C146.214 484.908 146.592 484.81 146.9 484.614C147.208 484.418 147.469 484.152 147.684 483.816L148.58 484.698C148.309 485.146 147.917 485.505 147.404 485.776C146.891 486.037 146.293 486.168 145.612 486.168ZM145.612 479.742C145.351 479.742 145.108 479.789 144.884 479.882C144.669 479.975 144.483 480.106 144.324 480.274C144.175 480.442 144.058 480.643 143.974 480.876C143.89 481.109 143.848 481.366 143.848 481.646V481.744H147.236V481.604C147.236 481.044 147.091 480.596 146.802 480.26C146.513 479.915 146.116 479.742 145.612 479.742ZM153.116 478.72H154.6L155.342 481.772L156 484.53H156.042L156.798 481.772L157.68 478.72H159.052L159.948 481.772L160.718 484.53H160.76L161.404 481.772L162.16 478.72H163.574L161.614 486H159.892L158.94 482.682L158.352 480.638H158.324L157.75 482.682L156.784 486H155.104L153.116 478.72ZM165.028 475.64H166.554V479.924H166.624C166.782 479.532 167.02 479.205 167.338 478.944C167.664 478.683 168.108 478.552 168.668 478.552C169.414 478.552 169.993 478.799 170.404 479.294C170.824 479.779 171.034 480.475 171.034 481.38V486H169.508V481.562C169.508 480.433 169.05 479.868 168.136 479.868C167.94 479.868 167.744 479.896 167.548 479.952C167.361 479.999 167.193 480.073 167.044 480.176C166.894 480.279 166.773 480.409 166.68 480.568C166.596 480.727 166.554 480.909 166.554 481.114V486H165.028V475.64ZM178.483 486C178.081 486 177.773 485.888 177.559 485.664C177.344 485.431 177.213 485.137 177.167 484.782H177.097C176.957 485.239 176.7 485.585 176.327 485.818C175.953 486.051 175.501 486.168 174.969 486.168C174.213 486.168 173.629 485.972 173.219 485.58C172.817 485.188 172.617 484.661 172.617 483.998C172.617 483.27 172.878 482.724 173.401 482.36C173.933 481.996 174.707 481.814 175.725 481.814H177.041V481.198C177.041 480.75 176.919 480.405 176.677 480.162C176.434 479.919 176.056 479.798 175.543 479.798C175.113 479.798 174.763 479.891 174.493 480.078C174.222 480.265 173.993 480.503 173.807 480.792L172.897 479.966C173.139 479.555 173.48 479.219 173.919 478.958C174.357 478.687 174.931 478.552 175.641 478.552C176.583 478.552 177.307 478.771 177.811 479.21C178.315 479.649 178.567 480.279 178.567 481.1V484.754H179.337V486H178.483ZM175.403 485.006C175.879 485.006 176.271 484.903 176.579 484.698C176.887 484.483 177.041 484.199 177.041 483.844V482.794H175.753C174.698 482.794 174.171 483.121 174.171 483.774V484.026C174.171 484.353 174.278 484.6 174.493 484.768C174.717 484.927 175.02 485.006 175.403 485.006ZM182.807 486C182.275 486 181.874 485.865 181.603 485.594C181.333 485.314 181.197 484.922 181.197 484.418V479.966H180.063V478.72H180.679C180.931 478.72 181.104 478.664 181.197 478.552C181.3 478.44 181.351 478.258 181.351 478.006V476.732H182.723V478.72H184.249V479.966H182.723V484.754H184.137V486H182.807ZM193.679 478.72H195.149L192.083 487.442C191.999 487.685 191.901 487.89 191.789 488.058C191.686 488.235 191.56 488.375 191.411 488.478C191.271 488.59 191.098 488.669 190.893 488.716C190.688 488.772 190.445 488.8 190.165 488.8H189.283V487.554H190.515L190.935 486.322L188.289 478.72H189.815L191.271 483.004L191.691 484.586H191.761L192.223 483.004L193.679 478.72ZM199.178 486.168C198.674 486.168 198.212 486.079 197.792 485.902C197.382 485.725 197.032 485.473 196.742 485.146C196.453 484.81 196.229 484.409 196.07 483.942C195.912 483.466 195.832 482.939 195.832 482.36C195.832 481.781 195.912 481.259 196.07 480.792C196.229 480.316 196.453 479.915 196.742 479.588C197.032 479.252 197.382 478.995 197.792 478.818C198.212 478.641 198.674 478.552 199.178 478.552C199.682 478.552 200.14 478.641 200.55 478.818C200.97 478.995 201.325 479.252 201.614 479.588C201.904 479.915 202.128 480.316 202.286 480.792C202.445 481.259 202.524 481.781 202.524 482.36C202.524 482.939 202.445 483.466 202.286 483.942C202.128 484.409 201.904 484.81 201.614 485.146C201.325 485.473 200.97 485.725 200.55 485.902C200.14 486.079 199.682 486.168 199.178 486.168ZM199.178 484.908C199.701 484.908 200.121 484.749 200.438 484.432C200.756 484.105 200.914 483.62 200.914 482.976V481.744C200.914 481.1 200.756 480.619 200.438 480.302C200.121 479.975 199.701 479.812 199.178 479.812C198.656 479.812 198.236 479.975 197.918 480.302C197.601 480.619 197.442 481.1 197.442 481.744V482.976C197.442 483.62 197.601 484.105 197.918 484.432C198.236 484.749 198.656 484.908 199.178 484.908ZM208.635 484.796H208.579C208.513 484.973 208.425 485.146 208.313 485.314C208.21 485.482 208.075 485.631 207.907 485.762C207.748 485.883 207.552 485.981 207.319 486.056C207.095 486.131 206.833 486.168 206.535 486.168C205.779 486.168 205.191 485.925 204.771 485.44C204.36 484.955 204.155 484.259 204.155 483.354V478.72H205.681V483.158C205.681 484.287 206.147 484.852 207.081 484.852C207.277 484.852 207.468 484.829 207.655 484.782C207.841 484.726 208.005 484.647 208.145 484.544C208.294 484.441 208.411 484.311 208.495 484.152C208.588 483.993 208.635 483.807 208.635 483.592V478.72H210.161V486H208.635V484.796ZM217.965 486.168C217.274 486.168 216.695 486.047 216.229 485.804C215.762 485.561 215.356 485.225 215.011 484.796L215.991 483.9C216.261 484.227 216.56 484.483 216.887 484.67C217.223 484.847 217.61 484.936 218.049 484.936C218.497 484.936 218.828 484.852 219.043 484.684C219.267 484.507 219.379 484.264 219.379 483.956C219.379 483.723 219.299 483.527 219.141 483.368C218.991 483.2 218.725 483.093 218.343 483.046L217.671 482.962C216.924 482.869 216.336 482.654 215.907 482.318C215.487 481.973 215.277 481.464 215.277 480.792C215.277 480.437 215.342 480.125 215.473 479.854C215.603 479.574 215.785 479.341 216.019 479.154C216.261 478.958 216.546 478.809 216.873 478.706C217.209 478.603 217.577 478.552 217.979 478.552C218.632 478.552 219.164 478.655 219.575 478.86C219.995 479.065 220.368 479.35 220.695 479.714L219.757 480.61C219.57 480.386 219.323 480.195 219.015 480.036C218.716 479.868 218.371 479.784 217.979 479.784C217.559 479.784 217.246 479.868 217.041 480.036C216.845 480.204 216.747 480.423 216.747 480.694C216.747 480.974 216.835 481.184 217.013 481.324C217.19 481.464 217.475 481.567 217.867 481.632L218.539 481.716C219.341 481.837 219.925 482.075 220.289 482.43C220.662 482.775 220.849 483.242 220.849 483.83C220.849 484.185 220.779 484.507 220.639 484.796C220.508 485.076 220.317 485.319 220.065 485.524C219.813 485.729 219.509 485.888 219.155 486C218.8 486.112 218.403 486.168 217.965 486.168ZM222.572 475.64H224.098V479.924H224.168C224.327 479.532 224.565 479.205 224.882 478.944C225.209 478.683 225.652 478.552 226.212 478.552C226.959 478.552 227.538 478.799 227.948 479.294C228.368 479.779 228.578 480.475 228.578 481.38V486H227.052V481.562C227.052 480.433 226.595 479.868 225.68 479.868C225.484 479.868 225.288 479.896 225.092 479.952C224.906 479.999 224.738 480.073 224.588 480.176C224.439 480.279 224.318 480.409 224.224 480.568C224.14 480.727 224.098 480.909 224.098 481.114V486H222.572V475.64ZM233.55 486.168C233.046 486.168 232.584 486.079 232.164 485.902C231.753 485.725 231.403 485.473 231.114 485.146C230.824 484.81 230.6 484.409 230.442 483.942C230.283 483.466 230.204 482.939 230.204 482.36C230.204 481.781 230.283 481.259 230.442 480.792C230.6 480.316 230.824 479.915 231.114 479.588C231.403 479.252 231.753 478.995 232.164 478.818C232.584 478.641 233.046 478.552 233.55 478.552C234.054 478.552 234.511 478.641 234.922 478.818C235.342 478.995 235.696 479.252 235.986 479.588C236.275 479.915 236.499 480.316 236.658 480.792C236.816 481.259 236.896 481.781 236.896 482.36C236.896 482.939 236.816 483.466 236.658 483.942C236.499 484.409 236.275 484.81 235.986 485.146C235.696 485.473 235.342 485.725 234.922 485.902C234.511 486.079 234.054 486.168 233.55 486.168ZM233.55 484.908C234.072 484.908 234.492 484.749 234.81 484.432C235.127 484.105 235.286 483.62 235.286 482.976V481.744C235.286 481.1 235.127 480.619 234.81 480.302C234.492 479.975 234.072 479.812 233.55 479.812C233.027 479.812 232.607 479.975 232.29 480.302C231.972 480.619 231.814 481.1 231.814 481.744V482.976C231.814 483.62 231.972 484.105 232.29 484.432C232.607 484.749 233.027 484.908 233.55 484.908ZM243.006 484.796H242.95C242.885 484.973 242.796 485.146 242.684 485.314C242.581 485.482 242.446 485.631 242.278 485.762C242.119 485.883 241.923 485.981 241.69 486.056C241.466 486.131 241.205 486.168 240.906 486.168C240.15 486.168 239.562 485.925 239.142 485.44C238.731 484.955 238.526 484.259 238.526 483.354V478.72H240.052V483.158C240.052 484.287 240.519 484.852 241.452 484.852C241.648 484.852 241.839 484.829 242.026 484.782C242.213 484.726 242.376 484.647 242.516 484.544C242.665 484.441 242.782 484.311 242.866 484.152C242.959 483.993 243.006 483.807 243.006 483.592V478.72H244.532V486H243.006V484.796ZM248.271 486C247.748 486 247.356 485.869 247.095 485.608C246.843 485.337 246.717 484.964 246.717 484.488V475.64H248.243V484.754H249.251V486H248.271ZM255.287 484.796H255.217C255.059 485.225 254.797 485.561 254.433 485.804C254.079 486.047 253.659 486.168 253.173 486.168C252.249 486.168 251.535 485.837 251.031 485.174C250.527 484.502 250.275 483.564 250.275 482.36C250.275 481.156 250.527 480.223 251.031 479.56C251.535 478.888 252.249 478.552 253.173 478.552C253.659 478.552 254.079 478.673 254.433 478.916C254.797 479.149 255.059 479.485 255.217 479.924H255.287V475.64H256.813V486H255.287V484.796ZM253.635 484.852C254.102 484.852 254.494 484.74 254.811 484.516C255.129 484.283 255.287 483.979 255.287 483.606V481.114C255.287 480.741 255.129 480.442 254.811 480.218C254.494 479.985 254.102 479.868 253.635 479.868C253.103 479.868 252.679 480.041 252.361 480.386C252.044 480.722 251.885 481.17 251.885 481.73V482.99C251.885 483.55 252.044 484.003 252.361 484.348C252.679 484.684 253.103 484.852 253.635 484.852ZM262.303 475.64H263.829V479.924H263.899C264.058 479.485 264.314 479.149 264.669 478.916C265.033 478.673 265.458 478.552 265.943 478.552C266.867 478.552 267.581 478.888 268.085 479.56C268.589 480.223 268.841 481.156 268.841 482.36C268.841 483.564 268.589 484.502 268.085 485.174C267.581 485.837 266.867 486.168 265.943 486.168C265.458 486.168 265.033 486.047 264.669 485.804C264.314 485.561 264.058 485.225 263.899 484.796H263.829V486H262.303V475.64ZM265.481 484.852C266.013 484.852 266.438 484.684 266.755 484.348C267.072 484.003 267.231 483.55 267.231 482.99V481.73C267.231 481.17 267.072 480.722 266.755 480.386C266.438 480.041 266.013 479.868 265.481 479.868C265.014 479.868 264.622 479.985 264.305 480.218C263.988 480.442 263.829 480.741 263.829 481.114V483.606C263.829 483.979 263.988 484.283 264.305 484.516C264.622 484.74 265.014 484.852 265.481 484.852ZM273.444 486.168C272.921 486.168 272.455 486.079 272.044 485.902C271.633 485.725 271.283 485.473 270.994 485.146C270.705 484.81 270.481 484.409 270.322 483.942C270.173 483.466 270.098 482.939 270.098 482.36C270.098 481.781 270.173 481.259 270.322 480.792C270.481 480.316 270.705 479.915 270.994 479.588C271.283 479.252 271.633 478.995 272.044 478.818C272.455 478.641 272.921 478.552 273.444 478.552C273.976 478.552 274.443 478.645 274.844 478.832C275.255 479.019 275.595 479.28 275.866 479.616C276.137 479.943 276.337 480.325 276.468 480.764C276.608 481.203 276.678 481.674 276.678 482.178V482.752H271.68V482.99C271.68 483.55 271.843 484.012 272.17 484.376C272.506 484.731 272.982 484.908 273.598 484.908C274.046 484.908 274.424 484.81 274.732 484.614C275.04 484.418 275.301 484.152 275.516 483.816L276.412 484.698C276.141 485.146 275.749 485.505 275.236 485.776C274.723 486.037 274.125 486.168 273.444 486.168ZM273.444 479.742C273.183 479.742 272.94 479.789 272.716 479.882C272.501 479.975 272.315 480.106 272.156 480.274C272.007 480.442 271.89 480.643 271.806 480.876C271.722 481.109 271.68 481.366 271.68 481.646V481.744H275.068V481.604C275.068 481.044 274.923 480.596 274.634 480.26C274.345 479.915 273.948 479.742 273.444 479.742ZM286.254 484.796H286.184C286.025 485.225 285.764 485.561 285.4 485.804C285.045 486.047 284.625 486.168 284.14 486.168C283.216 486.168 282.502 485.837 281.998 485.174C281.494 484.502 281.242 483.564 281.242 482.36C281.242 481.156 281.494 480.223 281.998 479.56C282.502 478.888 283.216 478.552 284.14 478.552C284.625 478.552 285.045 478.673 285.4 478.916C285.764 479.149 286.025 479.485 286.184 479.924H286.254V475.64H287.78V486H286.254V484.796ZM284.602 484.852C285.069 484.852 285.461 484.74 285.778 484.516C286.095 484.283 286.254 483.979 286.254 483.606V481.114C286.254 480.741 286.095 480.442 285.778 480.218C285.461 479.985 285.069 479.868 284.602 479.868C284.07 479.868 283.645 480.041 283.328 480.386C283.011 480.722 282.852 481.17 282.852 481.73V482.99C282.852 483.55 283.011 484.003 283.328 484.348C283.645 484.684 284.07 484.852 284.602 484.852ZM292.817 486.168C292.313 486.168 291.851 486.079 291.431 485.902C291.02 485.725 290.67 485.473 290.381 485.146C290.092 484.81 289.868 484.409 289.709 483.942C289.55 483.466 289.471 482.939 289.471 482.36C289.471 481.781 289.55 481.259 289.709 480.792C289.868 480.316 290.092 479.915 290.381 479.588C290.67 479.252 291.02 478.995 291.431 478.818C291.851 478.641 292.313 478.552 292.817 478.552C293.321 478.552 293.778 478.641 294.189 478.818C294.609 478.995 294.964 479.252 295.253 479.588C295.542 479.915 295.766 480.316 295.925 480.792C296.084 481.259 296.163 481.781 296.163 482.36C296.163 482.939 296.084 483.466 295.925 483.942C295.766 484.409 295.542 484.81 295.253 485.146C294.964 485.473 294.609 485.725 294.189 485.902C293.778 486.079 293.321 486.168 292.817 486.168ZM292.817 484.908C293.34 484.908 293.76 484.749 294.077 484.432C294.394 484.105 294.553 483.62 294.553 482.976V481.744C294.553 481.1 294.394 480.619 294.077 480.302C293.76 479.975 293.34 479.812 292.817 479.812C292.294 479.812 291.874 479.975 291.557 480.302C291.24 480.619 291.081 481.1 291.081 481.744V482.976C291.081 483.62 291.24 484.105 291.557 484.432C291.874 484.749 292.294 484.908 292.817 484.908ZM298.633 477.418C298.316 477.418 298.083 477.343 297.933 477.194C297.793 477.045 297.723 476.853 297.723 476.62V476.382C297.723 476.149 297.793 475.957 297.933 475.808C298.083 475.659 298.316 475.584 298.633 475.584C298.951 475.584 299.179 475.659 299.319 475.808C299.459 475.957 299.529 476.149 299.529 476.382V476.62C299.529 476.853 299.459 477.045 299.319 477.194C299.179 477.343 298.951 477.418 298.633 477.418ZM297.863 478.72H299.389V486H297.863V478.72ZM301.569 486V478.72H303.095V479.924H303.165C303.323 479.532 303.561 479.205 303.879 478.944C304.205 478.683 304.649 478.552 305.209 478.552C305.955 478.552 306.534 478.799 306.945 479.294C307.365 479.779 307.575 480.475 307.575 481.38V486H306.049V481.576C306.049 480.437 305.591 479.868 304.677 479.868C304.481 479.868 304.285 479.896 304.089 479.952C303.902 479.999 303.734 480.073 303.585 480.176C303.435 480.279 303.314 480.409 303.221 480.568C303.137 480.727 303.095 480.913 303.095 481.128V486H301.569ZM316.074 486.686C316.074 487.442 315.784 488.011 315.206 488.394C314.627 488.777 313.684 488.968 312.378 488.968C311.78 488.968 311.272 488.926 310.852 488.842C310.441 488.767 310.1 488.655 309.83 488.506C309.568 488.357 309.377 488.175 309.256 487.96C309.134 487.745 309.074 487.498 309.074 487.218C309.074 486.817 309.181 486.504 309.396 486.28C309.62 486.056 309.928 485.902 310.32 485.818V485.664C309.769 485.487 309.494 485.113 309.494 484.544C309.494 484.171 309.62 483.886 309.872 483.69C310.124 483.485 310.427 483.34 310.782 483.256V483.2C310.352 482.995 310.021 482.71 309.788 482.346C309.564 481.973 309.452 481.539 309.452 481.044C309.452 480.297 309.699 479.695 310.194 479.238C310.698 478.781 311.416 478.552 312.35 478.552C312.863 478.552 313.302 478.627 313.666 478.776V478.58C313.666 478.253 313.74 478.001 313.89 477.824C314.048 477.637 314.291 477.544 314.618 477.544H315.738V478.776H314.254V479.07C314.58 479.285 314.832 479.565 315.01 479.91C315.187 480.246 315.276 480.624 315.276 481.044C315.276 481.781 315.024 482.379 314.52 482.836C314.016 483.284 313.297 483.508 312.364 483.508C312.009 483.508 311.692 483.471 311.412 483.396C311.225 483.461 311.062 483.555 310.922 483.676C310.782 483.788 310.712 483.937 310.712 484.124C310.712 484.32 310.8 484.46 310.978 484.544C311.155 484.628 311.407 484.67 311.734 484.67H313.526C314.422 484.67 315.07 484.852 315.472 485.216C315.873 485.571 316.074 486.061 316.074 486.686ZM314.646 486.854C314.646 486.602 314.548 486.401 314.352 486.252C314.165 486.103 313.82 486.028 313.316 486.028H310.852C310.516 486.224 310.348 486.504 310.348 486.868C310.348 487.167 310.464 487.405 310.698 487.582C310.94 487.769 311.346 487.862 311.916 487.862H312.868C314.053 487.862 314.646 487.526 314.646 486.854ZM312.364 482.402C312.812 482.402 313.157 482.304 313.4 482.108C313.652 481.903 313.778 481.59 313.778 481.17V480.89C313.778 480.47 313.652 480.162 313.4 479.966C313.157 479.761 312.812 479.658 312.364 479.658C311.916 479.658 311.566 479.761 311.314 479.966C311.071 480.162 310.95 480.47 310.95 480.89V481.17C310.95 481.59 311.071 481.903 311.314 482.108C311.566 482.304 311.916 482.402 312.364 482.402ZM319.79 478.72H321.274L322.016 481.772L322.674 484.53H322.716L323.472 481.772L324.354 478.72H325.726L326.622 481.772L327.392 484.53H327.434L328.078 481.772L328.834 478.72H330.248L328.288 486H326.566L325.614 482.682L325.026 480.638H324.998L324.424 482.682L323.458 486H321.778L319.79 478.72ZM331.701 475.64H333.227V479.924H333.297C333.456 479.532 333.694 479.205 334.011 478.944C334.338 478.683 334.781 478.552 335.341 478.552C336.088 478.552 336.667 478.799 337.077 479.294C337.497 479.779 337.707 480.475 337.707 481.38V486H336.181V481.562C336.181 480.433 335.724 479.868 334.809 479.868C334.613 479.868 334.417 479.896 334.221 479.952C334.035 479.999 333.867 480.073 333.717 480.176C333.568 480.279 333.447 480.409 333.353 480.568C333.269 480.727 333.227 480.909 333.227 481.114V486H331.701V475.64ZM342.678 486.168C342.156 486.168 341.689 486.079 341.278 485.902C340.868 485.725 340.518 485.473 340.228 485.146C339.939 484.81 339.715 484.409 339.556 483.942C339.407 483.466 339.332 482.939 339.332 482.36C339.332 481.781 339.407 481.259 339.556 480.792C339.715 480.316 339.939 479.915 340.228 479.588C340.518 479.252 340.868 478.995 341.278 478.818C341.689 478.641 342.156 478.552 342.678 478.552C343.21 478.552 343.677 478.645 344.078 478.832C344.489 479.019 344.83 479.28 345.1 479.616C345.371 479.943 345.572 480.325 345.702 480.764C345.842 481.203 345.912 481.674 345.912 482.178V482.752H340.914V482.99C340.914 483.55 341.078 484.012 341.404 484.376C341.74 484.731 342.216 484.908 342.832 484.908C343.28 484.908 343.658 484.81 343.966 484.614C344.274 484.418 344.536 484.152 344.75 483.816L345.646 484.698C345.376 485.146 344.984 485.505 344.47 485.776C343.957 486.037 343.36 486.168 342.678 486.168ZM342.678 479.742C342.417 479.742 342.174 479.789 341.95 479.882C341.736 479.975 341.549 480.106 341.39 480.274C341.241 480.442 341.124 480.643 341.04 480.876C340.956 481.109 340.914 481.366 340.914 481.646V481.744H344.302V481.604C344.302 481.044 344.158 480.596 343.868 480.26C343.579 479.915 343.182 479.742 342.678 479.742ZM347.602 486V478.72H349.128V479.924H349.198C349.356 479.532 349.594 479.205 349.912 478.944C350.238 478.683 350.682 478.552 351.242 478.552C351.988 478.552 352.567 478.799 352.978 479.294C353.398 479.779 353.608 480.475 353.608 481.38V486H352.082V481.576C352.082 480.437 351.624 479.868 350.71 479.868C350.514 479.868 350.318 479.896 350.122 479.952C349.935 479.999 349.767 480.073 349.618 480.176C349.468 480.279 349.347 480.409 349.254 480.568C349.17 480.727 349.128 480.913 349.128 481.128V486H347.602ZM363.497 478.72H364.967L361.901 487.442C361.817 487.685 361.719 487.89 361.607 488.058C361.505 488.235 361.379 488.375 361.229 488.478C361.089 488.59 360.917 488.669 360.711 488.716C360.506 488.772 360.263 488.8 359.983 488.8H359.101V487.554H360.333L360.753 486.322L358.107 478.72H359.633L361.089 483.004L361.509 484.586H361.579L362.041 483.004L363.497 478.72ZM368.997 486.168C368.493 486.168 368.031 486.079 367.611 485.902C367.2 485.725 366.85 485.473 366.561 485.146C366.271 484.81 366.047 484.409 365.889 483.942C365.73 483.466 365.651 482.939 365.651 482.36C365.651 481.781 365.73 481.259 365.889 480.792C366.047 480.316 366.271 479.915 366.561 479.588C366.85 479.252 367.2 478.995 367.611 478.818C368.031 478.641 368.493 478.552 368.997 478.552C369.501 478.552 369.958 478.641 370.369 478.818C370.789 478.995 371.143 479.252 371.433 479.588C371.722 479.915 371.946 480.316 372.105 480.792C372.263 481.259 372.343 481.781 372.343 482.36C372.343 482.939 372.263 483.466 372.105 483.942C371.946 484.409 371.722 484.81 371.433 485.146C371.143 485.473 370.789 485.725 370.369 485.902C369.958 486.079 369.501 486.168 368.997 486.168ZM368.997 484.908C369.519 484.908 369.939 484.749 370.257 484.432C370.574 484.105 370.733 483.62 370.733 482.976V481.744C370.733 481.1 370.574 480.619 370.257 480.302C369.939 479.975 369.519 479.812 368.997 479.812C368.474 479.812 368.054 479.975 367.737 480.302C367.419 480.619 367.261 481.1 367.261 481.744V482.976C367.261 483.62 367.419 484.105 367.737 484.432C368.054 484.749 368.474 484.908 368.997 484.908ZM378.453 484.796H378.397C378.332 484.973 378.243 485.146 378.131 485.314C378.029 485.482 377.893 485.631 377.725 485.762C377.567 485.883 377.371 485.981 377.137 486.056C376.913 486.131 376.652 486.168 376.353 486.168C375.597 486.168 375.009 485.925 374.589 485.44C374.179 484.955 373.973 484.259 373.973 483.354V478.72H375.499V483.158C375.499 484.287 375.966 484.852 376.899 484.852C377.095 484.852 377.287 484.829 377.473 484.782C377.66 484.726 377.823 484.647 377.963 484.544C378.113 484.441 378.229 484.311 378.313 484.152C378.407 483.993 378.453 483.807 378.453 483.592V478.72H379.979V486H378.453V484.796ZM388.287 486.168C387.764 486.168 387.298 486.079 386.887 485.902C386.476 485.725 386.131 485.473 385.851 485.146C385.571 484.81 385.356 484.409 385.207 483.942C385.058 483.466 384.983 482.939 384.983 482.36C384.983 481.781 385.058 481.259 385.207 480.792C385.356 480.316 385.571 479.915 385.851 479.588C386.131 479.252 386.476 478.995 386.887 478.818C387.298 478.641 387.764 478.552 388.287 478.552C389.015 478.552 389.612 478.715 390.079 479.042C390.546 479.369 390.886 479.803 391.101 480.344L389.841 480.932C389.738 480.596 389.556 480.33 389.295 480.134C389.043 479.929 388.707 479.826 388.287 479.826C387.727 479.826 387.302 480.003 387.013 480.358C386.733 480.703 386.593 481.156 386.593 481.716V483.018C386.593 483.578 386.733 484.035 387.013 484.39C387.302 484.735 387.727 484.908 388.287 484.908C388.735 484.908 389.09 484.801 389.351 484.586C389.622 484.362 389.836 484.068 389.995 483.704L391.157 484.32C390.914 484.917 390.55 485.375 390.065 485.692C389.58 486.009 388.987 486.168 388.287 486.168ZM395.384 486.168C394.88 486.168 394.418 486.079 393.998 485.902C393.587 485.725 393.237 485.473 392.948 485.146C392.658 484.81 392.434 484.409 392.276 483.942C392.117 483.466 392.038 482.939 392.038 482.36C392.038 481.781 392.117 481.259 392.276 480.792C392.434 480.316 392.658 479.915 392.948 479.588C393.237 479.252 393.587 478.995 393.998 478.818C394.418 478.641 394.88 478.552 395.384 478.552C395.888 478.552 396.345 478.641 396.756 478.818C397.176 478.995 397.53 479.252 397.82 479.588C398.109 479.915 398.333 480.316 398.492 480.792C398.65 481.259 398.73 481.781 398.73 482.36C398.73 482.939 398.65 483.466 398.492 483.942C398.333 484.409 398.109 484.81 397.82 485.146C397.53 485.473 397.176 485.725 396.756 485.902C396.345 486.079 395.888 486.168 395.384 486.168ZM395.384 484.908C395.906 484.908 396.326 484.749 396.644 484.432C396.961 484.105 397.12 483.62 397.12 482.976V481.744C397.12 481.1 396.961 480.619 396.644 480.302C396.326 479.975 395.906 479.812 395.384 479.812C394.861 479.812 394.441 479.975 394.124 480.302C393.806 480.619 393.648 481.1 393.648 481.744V482.976C393.648 483.62 393.806 484.105 394.124 484.432C394.441 484.749 394.861 484.908 395.384 484.908ZM400.43 486V478.72H401.956V479.924H402.026C402.101 479.737 402.189 479.56 402.292 479.392C402.404 479.224 402.535 479.079 402.684 478.958C402.843 478.827 403.025 478.729 403.23 478.664C403.445 478.589 403.692 478.552 403.972 478.552C404.467 478.552 404.905 478.673 405.288 478.916C405.671 479.159 405.951 479.532 406.128 480.036H406.17C406.301 479.625 406.553 479.275 406.926 478.986C407.299 478.697 407.78 478.552 408.368 478.552C409.096 478.552 409.661 478.799 410.062 479.294C410.463 479.779 410.664 480.475 410.664 481.38V486H409.138V481.562C409.138 481.002 409.031 480.582 408.816 480.302C408.601 480.013 408.261 479.868 407.794 479.868C407.598 479.868 407.411 479.896 407.234 479.952C407.057 479.999 406.898 480.073 406.758 480.176C406.627 480.279 406.52 480.409 406.436 480.568C406.352 480.727 406.31 480.909 406.31 481.114V486H404.784V481.562C404.784 480.433 404.341 479.868 403.454 479.868C403.267 479.868 403.081 479.896 402.894 479.952C402.717 479.999 402.558 480.073 402.418 480.176C402.278 480.279 402.166 480.409 402.082 480.568C401.998 480.727 401.956 480.909 401.956 481.114V486H400.43ZM415.632 486.168C415.109 486.168 414.642 486.079 414.232 485.902C413.821 485.725 413.471 485.473 413.182 485.146C412.892 484.81 412.668 484.409 412.51 483.942C412.36 483.466 412.286 482.939 412.286 482.36C412.286 481.781 412.36 481.259 412.51 480.792C412.668 480.316 412.892 479.915 413.182 479.588C413.471 479.252 413.821 478.995 414.232 478.818C414.642 478.641 415.109 478.552 415.632 478.552C416.164 478.552 416.63 478.645 417.032 478.832C417.442 479.019 417.783 479.28 418.054 479.616C418.324 479.943 418.525 480.325 418.656 480.764C418.796 481.203 418.866 481.674 418.866 482.178V482.752H413.868V482.99C413.868 483.55 414.031 484.012 414.358 484.376C414.694 484.731 415.17 484.908 415.786 484.908C416.234 484.908 416.612 484.81 416.92 484.614C417.228 484.418 417.489 484.152 417.704 483.816L418.6 484.698C418.329 485.146 417.937 485.505 417.424 485.776C416.91 486.037 416.313 486.168 415.632 486.168ZM415.632 479.742C415.37 479.742 415.128 479.789 414.904 479.882C414.689 479.975 414.502 480.106 414.344 480.274C414.194 480.442 414.078 480.643 413.994 480.876C413.91 481.109 413.868 481.366 413.868 481.646V481.744H417.256V481.604C417.256 481.044 417.111 480.596 416.822 480.26C416.532 479.915 416.136 479.742 415.632 479.742ZM424.633 477.418C424.316 477.418 424.083 477.343 423.933 477.194C423.793 477.045 423.723 476.853 423.723 476.62V476.382C423.723 476.149 423.793 475.957 423.933 475.808C424.083 475.659 424.316 475.584 424.633 475.584C424.951 475.584 425.179 475.659 425.319 475.808C425.459 475.957 425.529 476.149 425.529 476.382V476.62C425.529 476.853 425.459 477.045 425.319 477.194C425.179 477.343 424.951 477.418 424.633 477.418ZM423.863 478.72H425.389V486H423.863V478.72ZM427.569 486V478.72H429.095V479.924H429.165C429.323 479.532 429.561 479.205 429.879 478.944C430.205 478.683 430.649 478.552 431.209 478.552C431.955 478.552 432.534 478.799 432.945 479.294C433.365 479.779 433.575 480.475 433.575 481.38V486H432.049V481.576C432.049 480.437 431.591 479.868 430.677 479.868C430.481 479.868 430.285 479.896 430.089 479.952C429.902 479.999 429.734 480.073 429.585 480.176C429.435 480.279 429.314 480.409 429.221 480.568C429.137 480.727 429.095 480.913 429.095 481.128V486H427.569ZM436.628 484.054C436.973 484.054 437.23 484.143 437.398 484.32C437.566 484.497 437.65 484.726 437.65 485.006V485.23C437.65 485.687 437.524 486.163 437.272 486.658C437.029 487.162 436.698 487.587 436.278 487.932H435.144C435.442 487.633 435.69 487.344 435.886 487.064C436.082 486.784 436.231 486.471 436.334 486.126C436.091 486.079 435.909 485.977 435.788 485.818C435.666 485.65 435.606 485.454 435.606 485.23V485.006C435.606 484.726 435.69 484.497 435.858 484.32C436.026 484.143 436.282 484.054 436.628 484.054ZM443.059 475.64H444.585V479.924H444.655C444.813 479.532 445.051 479.205 445.369 478.944C445.695 478.683 446.139 478.552 446.699 478.552C447.445 478.552 448.024 478.799 448.435 479.294C448.855 479.779 449.065 480.475 449.065 481.38V486H447.539V481.562C447.539 480.433 447.081 479.868 446.167 479.868C445.971 479.868 445.775 479.896 445.579 479.952C445.392 479.999 445.224 480.073 445.075 480.176C444.925 480.279 444.804 480.409 444.711 480.568C444.627 480.727 444.585 480.909 444.585 481.114V486H443.059V475.64ZM454.036 486.168C453.532 486.168 453.07 486.079 452.65 485.902C452.239 485.725 451.889 485.473 451.6 485.146C451.311 484.81 451.087 484.409 450.928 483.942C450.769 483.466 450.69 482.939 450.69 482.36C450.69 481.781 450.769 481.259 450.928 480.792C451.087 480.316 451.311 479.915 451.6 479.588C451.889 479.252 452.239 478.995 452.65 478.818C453.07 478.641 453.532 478.552 454.036 478.552C454.54 478.552 454.997 478.641 455.408 478.818C455.828 478.995 456.183 479.252 456.472 479.588C456.761 479.915 456.985 480.316 457.144 480.792C457.303 481.259 457.382 481.781 457.382 482.36C457.382 482.939 457.303 483.466 457.144 483.942C456.985 484.409 456.761 484.81 456.472 485.146C456.183 485.473 455.828 485.725 455.408 485.902C454.997 486.079 454.54 486.168 454.036 486.168ZM454.036 484.908C454.559 484.908 454.979 484.749 455.296 484.432C455.613 484.105 455.772 483.62 455.772 482.976V481.744C455.772 481.1 455.613 480.619 455.296 480.302C454.979 479.975 454.559 479.812 454.036 479.812C453.513 479.812 453.093 479.975 452.776 480.302C452.459 480.619 452.3 481.1 452.3 481.744V482.976C452.3 483.62 452.459 484.105 452.776 484.432C453.093 484.749 453.513 484.908 454.036 484.908ZM458.259 478.72H459.743L460.485 481.772L461.143 484.53H461.185L461.941 481.772L462.823 478.72H464.195L465.091 481.772L465.861 484.53H465.903L466.547 481.772L467.303 478.72H468.717L466.757 486H465.035L464.083 482.682L463.495 480.638H463.467L462.893 482.682L461.927 486H460.247L458.259 478.72ZM40.364 494.72H41.848L42.59 497.772L43.248 500.53H43.29L44.046 497.772L44.928 494.72H46.3L47.196 497.772L47.966 500.53H48.008L48.652 497.772L49.408 494.72H50.822L48.862 502H47.14L46.188 498.682L45.6 496.638H45.572L44.998 498.682L44.032 502H42.352L40.364 494.72ZM55.0359 502.168C54.5319 502.168 54.0699 502.079 53.6499 501.902C53.2392 501.725 52.8892 501.473 52.5999 501.146C52.3106 500.81 52.0866 500.409 51.9279 499.942C51.7692 499.466 51.6899 498.939 51.6899 498.36C51.6899 497.781 51.7692 497.259 51.9279 496.792C52.0866 496.316 52.3106 495.915 52.5999 495.588C52.8892 495.252 53.2392 494.995 53.6499 494.818C54.0699 494.641 54.5319 494.552 55.0359 494.552C55.5399 494.552 55.9972 494.641 56.4079 494.818C56.8279 494.995 57.1826 495.252 57.4719 495.588C57.7612 495.915 57.9852 496.316 58.1439 496.792C58.3026 497.259 58.3819 497.781 58.3819 498.36C58.3819 498.939 58.3026 499.466 58.1439 499.942C57.9852 500.409 57.7612 500.81 57.4719 501.146C57.1826 501.473 56.8279 501.725 56.4079 501.902C55.9972 502.079 55.5399 502.168 55.0359 502.168ZM55.0359 500.908C55.5586 500.908 55.9786 500.749 56.2959 500.432C56.6132 500.105 56.7719 499.62 56.7719 498.976V497.744C56.7719 497.1 56.6132 496.619 56.2959 496.302C55.9786 495.975 55.5586 495.812 55.0359 495.812C54.5132 495.812 54.0932 495.975 53.7759 496.302C53.4586 496.619 53.2999 497.1 53.2999 497.744V498.976C53.2999 499.62 53.4586 500.105 53.7759 500.432C54.0932 500.749 54.5132 500.908 55.0359 500.908ZM64.4922 500.796H64.4362C64.3709 500.973 64.2822 501.146 64.1702 501.314C64.0676 501.482 63.9322 501.631 63.7642 501.762C63.6056 501.883 63.4096 501.981 63.1762 502.056C62.9522 502.131 62.6909 502.168 62.3922 502.168C61.6362 502.168 61.0482 501.925 60.6282 501.44C60.2176 500.955 60.0122 500.259 60.0122 499.354V494.72H61.5382V499.158C61.5382 500.287 62.0049 500.852 62.9382 500.852C63.1342 500.852 63.3256 500.829 63.5122 500.782C63.6989 500.726 63.8622 500.647 64.0022 500.544C64.1516 500.441 64.2682 500.311 64.3522 500.152C64.4456 499.993 64.4922 499.807 64.4922 499.592V494.72H66.0182V502H64.4922V500.796ZM69.7573 502C69.2347 502 68.8427 501.869 68.5813 501.608C68.3293 501.337 68.2033 500.964 68.2033 500.488V491.64H69.7293V500.754H70.7373V502H69.7573ZM76.7735 500.796H76.7035C76.5448 501.225 76.2835 501.561 75.9195 501.804C75.5648 502.047 75.1448 502.168 74.6595 502.168C73.7355 502.168 73.0215 501.837 72.5175 501.174C72.0135 500.502 71.7615 499.564 71.7615 498.36C71.7615 497.156 72.0135 496.223 72.5175 495.56C73.0215 494.888 73.7355 494.552 74.6595 494.552C75.1448 494.552 75.5648 494.673 75.9195 494.916C76.2835 495.149 76.5448 495.485 76.7035 495.924H76.7735V491.64H78.2995V502H76.7735V500.796ZM75.1215 500.852C75.5882 500.852 75.9802 500.74 76.2975 500.516C76.6148 500.283 76.7735 499.979 76.7735 499.606V497.114C76.7735 496.741 76.6148 496.442 76.2975 496.218C75.9802 495.985 75.5882 495.868 75.1215 495.868C74.5895 495.868 74.1648 496.041 73.8475 496.386C73.5302 496.722 73.3715 497.17 73.3715 497.73V498.99C73.3715 499.55 73.5302 500.003 73.8475 500.348C74.1648 500.684 74.5895 500.852 75.1215 500.852ZM88.2553 494.72H89.7253L86.6593 503.442C86.5753 503.685 86.4773 503.89 86.3653 504.058C86.2626 504.235 86.1366 504.375 85.9873 504.478C85.8473 504.59 85.6746 504.669 85.4693 504.716C85.2639 504.772 85.0213 504.8 84.7413 504.8H83.8593V503.554H85.0913L85.5113 502.322L82.8653 494.72H84.3913L85.8473 499.004L86.2673 500.586H86.3373L86.7993 499.004L88.2553 494.72ZM93.7546 502.168C93.2506 502.168 92.7886 502.079 92.3686 501.902C91.958 501.725 91.608 501.473 91.3186 501.146C91.0293 500.81 90.8053 500.409 90.6466 499.942C90.488 499.466 90.4086 498.939 90.4086 498.36C90.4086 497.781 90.488 497.259 90.6466 496.792C90.8053 496.316 91.0293 495.915 91.3186 495.588C91.608 495.252 91.958 494.995 92.3686 494.818C92.7886 494.641 93.2506 494.552 93.7546 494.552C94.2586 494.552 94.716 494.641 95.1266 494.818C95.5466 494.995 95.9013 495.252 96.1906 495.588C96.48 495.915 96.704 496.316 96.8626 496.792C97.0213 497.259 97.1006 497.781 97.1006 498.36C97.1006 498.939 97.0213 499.466 96.8626 499.942C96.704 500.409 96.48 500.81 96.1906 501.146C95.9013 501.473 95.5466 501.725 95.1266 501.902C94.716 502.079 94.2586 502.168 93.7546 502.168ZM93.7546 500.908C94.2773 500.908 94.6973 500.749 95.0146 500.432C95.332 500.105 95.4906 499.62 95.4906 498.976V497.744C95.4906 497.1 95.332 496.619 95.0146 496.302C94.6973 495.975 94.2773 495.812 93.7546 495.812C93.232 495.812 92.812 495.975 92.4946 496.302C92.1773 496.619 92.0186 497.1 92.0186 497.744V498.976C92.0186 499.62 92.1773 500.105 92.4946 500.432C92.812 500.749 93.232 500.908 93.7546 500.908ZM103.211 500.796H103.155C103.09 500.973 103.001 501.146 102.889 501.314C102.786 501.482 102.651 501.631 102.483 501.762C102.324 501.883 102.128 501.981 101.895 502.056C101.671 502.131 101.41 502.168 101.111 502.168C100.355 502.168 99.767 501.925 99.347 501.44C98.9363 500.955 98.731 500.259 98.731 499.354V494.72H100.257V499.158C100.257 500.287 100.724 500.852 101.657 500.852C101.853 500.852 102.044 500.829 102.231 500.782C102.418 500.726 102.581 500.647 102.721 500.544C102.87 500.441 102.987 500.311 103.071 500.152C103.164 499.993 103.211 499.807 103.211 499.592V494.72H104.737V502H103.211V500.796ZM110.609 495.966H109.503V494.72H110.609V493.516C110.609 492.928 110.763 492.471 111.071 492.144C111.379 491.808 111.841 491.64 112.457 491.64H113.661V492.886H112.135V494.72H116.461V502H114.935V495.966H112.135V502H110.609V495.966ZM115.705 493.418C115.387 493.418 115.154 493.343 115.005 493.194C114.865 493.045 114.795 492.853 114.795 492.62V492.382C114.795 492.149 114.865 491.957 115.005 491.808C115.154 491.659 115.387 491.584 115.705 491.584C116.022 491.584 116.251 491.659 116.391 491.808C116.531 491.957 116.601 492.149 116.601 492.382V492.62C116.601 492.853 116.531 493.045 116.391 493.194C116.251 493.343 116.022 493.418 115.705 493.418ZM118.639 502V494.72H120.165V495.924H120.235C120.394 495.532 120.632 495.205 120.949 494.944C121.276 494.683 121.719 494.552 122.279 494.552C123.026 494.552 123.604 494.799 124.015 495.294C124.435 495.779 124.645 496.475 124.645 497.38V502H123.119V497.576C123.119 496.437 122.662 495.868 121.747 495.868C121.551 495.868 121.355 495.896 121.159 495.952C120.972 495.999 120.804 496.073 120.655 496.176C120.506 496.279 120.384 496.409 120.291 496.568C120.207 496.727 120.165 496.913 120.165 497.128V502H118.639ZM131.338 500.796H131.268C131.109 501.225 130.848 501.561 130.484 501.804C130.129 502.047 129.709 502.168 129.224 502.168C128.3 502.168 127.586 501.837 127.082 501.174C126.578 500.502 126.326 499.564 126.326 498.36C126.326 497.156 126.578 496.223 127.082 495.56C127.586 494.888 128.3 494.552 129.224 494.552C129.709 494.552 130.129 494.673 130.484 494.916C130.848 495.149 131.109 495.485 131.268 495.924H131.338V491.64H132.864V502H131.338V500.796ZM129.686 500.852C130.153 500.852 130.545 500.74 130.862 500.516C131.179 500.283 131.338 499.979 131.338 499.606V497.114C131.338 496.741 131.179 496.442 130.862 496.218C130.545 495.985 130.153 495.868 129.686 495.868C129.154 495.868 128.729 496.041 128.412 496.386C128.095 496.722 127.936 497.17 127.936 497.73V498.99C127.936 499.55 128.095 500.003 128.412 500.348C128.729 500.684 129.154 500.852 129.686 500.852ZM142.82 494.72H144.29L141.224 503.442C141.14 503.685 141.042 503.89 140.93 504.058C140.827 504.235 140.701 504.375 140.552 504.478C140.412 504.59 140.239 504.669 140.034 504.716C139.828 504.772 139.586 504.8 139.306 504.8H138.424V503.554H139.656L140.076 502.322L137.43 494.72H138.956L140.412 499.004L140.832 500.586H140.902L141.364 499.004L142.82 494.72ZM148.319 502.168C147.815 502.168 147.353 502.079 146.933 501.902C146.522 501.725 146.172 501.473 145.883 501.146C145.594 500.81 145.37 500.409 145.211 499.942C145.052 499.466 144.973 498.939 144.973 498.36C144.973 497.781 145.052 497.259 145.211 496.792C145.37 496.316 145.594 495.915 145.883 495.588C146.172 495.252 146.522 494.995 146.933 494.818C147.353 494.641 147.815 494.552 148.319 494.552C148.823 494.552 149.28 494.641 149.691 494.818C150.111 494.995 150.466 495.252 150.755 495.588C151.044 495.915 151.268 496.316 151.427 496.792C151.586 497.259 151.665 497.781 151.665 498.36C151.665 498.939 151.586 499.466 151.427 499.942C151.268 500.409 151.044 500.81 150.755 501.146C150.466 501.473 150.111 501.725 149.691 501.902C149.28 502.079 148.823 502.168 148.319 502.168ZM148.319 500.908C148.842 500.908 149.262 500.749 149.579 500.432C149.896 500.105 150.055 499.62 150.055 498.976V497.744C150.055 497.1 149.896 496.619 149.579 496.302C149.262 495.975 148.842 495.812 148.319 495.812C147.796 495.812 147.376 495.975 147.059 496.302C146.742 496.619 146.583 497.1 146.583 497.744V498.976C146.583 499.62 146.742 500.105 147.059 500.432C147.376 500.749 147.796 500.908 148.319 500.908ZM157.775 500.796H157.719C157.654 500.973 157.565 501.146 157.453 501.314C157.351 501.482 157.215 501.631 157.047 501.762C156.889 501.883 156.693 501.981 156.459 502.056C156.235 502.131 155.974 502.168 155.675 502.168C154.919 502.168 154.331 501.925 153.911 501.44C153.501 500.955 153.295 500.259 153.295 499.354V494.72H154.821V499.158C154.821 500.287 155.288 500.852 156.221 500.852C156.417 500.852 156.609 500.829 156.795 500.782C156.982 500.726 157.145 500.647 157.285 500.544C157.435 500.441 157.551 500.311 157.635 500.152C157.729 499.993 157.775 499.807 157.775 499.592V494.72H159.301V502H157.775V500.796ZM161.487 502V494.72H163.013V496.12H163.083C163.185 495.747 163.4 495.42 163.727 495.14C164.053 494.86 164.506 494.72 165.085 494.72H165.491V496.19H164.889C164.282 496.19 163.815 496.288 163.489 496.484C163.171 496.68 163.013 496.969 163.013 497.352V502H161.487ZM175.489 502C175.087 502 174.779 501.888 174.565 501.664C174.35 501.431 174.219 501.137 174.173 500.782H174.103C173.963 501.239 173.706 501.585 173.333 501.818C172.959 502.051 172.507 502.168 171.975 502.168C171.219 502.168 170.635 501.972 170.225 501.58C169.823 501.188 169.623 500.661 169.623 499.998C169.623 499.27 169.884 498.724 170.407 498.36C170.939 497.996 171.713 497.814 172.731 497.814H174.047V497.198C174.047 496.75 173.925 496.405 173.683 496.162C173.44 495.919 173.062 495.798 172.549 495.798C172.119 495.798 171.769 495.891 171.499 496.078C171.228 496.265 170.999 496.503 170.812 496.792L169.903 495.966C170.145 495.555 170.486 495.219 170.925 494.958C171.363 494.687 171.937 494.552 172.647 494.552C173.589 494.552 174.313 494.771 174.817 495.21C175.321 495.649 175.573 496.279 175.573 497.1V500.754H176.343V502H175.489ZM172.409 501.006C172.885 501.006 173.277 500.903 173.585 500.698C173.893 500.483 174.047 500.199 174.047 499.844V498.794H172.758C171.704 498.794 171.177 499.121 171.177 499.774V500.026C171.177 500.353 171.284 500.6 171.499 500.768C171.723 500.927 172.026 501.006 172.409 501.006ZM180.148 502.168C179.457 502.168 178.879 502.047 178.412 501.804C177.945 501.561 177.539 501.225 177.194 500.796L178.174 499.9C178.445 500.227 178.743 500.483 179.07 500.67C179.406 500.847 179.793 500.936 180.232 500.936C180.68 500.936 181.011 500.852 181.226 500.684C181.45 500.507 181.562 500.264 181.562 499.956C181.562 499.723 181.483 499.527 181.324 499.368C181.175 499.2 180.909 499.093 180.526 499.046L179.854 498.962C179.107 498.869 178.519 498.654 178.09 498.318C177.67 497.973 177.46 497.464 177.46 496.792C177.46 496.437 177.525 496.125 177.656 495.854C177.787 495.574 177.969 495.341 178.202 495.154C178.445 494.958 178.729 494.809 179.056 494.706C179.392 494.603 179.761 494.552 180.162 494.552C180.815 494.552 181.347 494.655 181.758 494.86C182.178 495.065 182.551 495.35 182.878 495.714L181.94 496.61C181.753 496.386 181.506 496.195 181.198 496.036C180.899 495.868 180.554 495.784 180.162 495.784C179.742 495.784 179.429 495.868 179.224 496.036C179.028 496.204 178.93 496.423 178.93 496.694C178.93 496.974 179.019 497.184 179.196 497.324C179.373 497.464 179.658 497.567 180.05 497.632L180.722 497.716C181.525 497.837 182.108 498.075 182.472 498.43C182.845 498.775 183.032 499.242 183.032 499.83C183.032 500.185 182.962 500.507 182.822 500.796C182.691 501.076 182.5 501.319 182.248 501.524C181.996 501.729 181.693 501.888 181.338 502C180.983 502.112 180.587 502.168 180.148 502.168ZM186.984 502.168C186.293 502.168 185.715 502.047 185.248 501.804C184.781 501.561 184.375 501.225 184.03 500.796L185.01 499.9C185.281 500.227 185.579 500.483 185.906 500.67C186.242 500.847 186.629 500.936 187.068 500.936C187.516 500.936 187.847 500.852 188.062 500.684C188.286 500.507 188.398 500.264 188.398 499.956C188.398 499.723 188.319 499.527 188.16 499.368C188.011 499.2 187.745 499.093 187.362 499.046L186.69 498.962C185.943 498.869 185.355 498.654 184.926 498.318C184.506 497.973 184.296 497.464 184.296 496.792C184.296 496.437 184.361 496.125 184.492 495.854C184.623 495.574 184.805 495.341 185.038 495.154C185.281 494.958 185.565 494.809 185.892 494.706C186.228 494.603 186.597 494.552 186.998 494.552C187.651 494.552 188.183 494.655 188.594 494.86C189.014 495.065 189.387 495.35 189.714 495.714L188.776 496.61C188.589 496.386 188.342 496.195 188.034 496.036C187.735 495.868 187.39 495.784 186.998 495.784C186.578 495.784 186.265 495.868 186.06 496.036C185.864 496.204 185.766 496.423 185.766 496.694C185.766 496.974 185.855 497.184 186.032 497.324C186.209 497.464 186.494 497.567 186.886 497.632L187.558 497.716C188.361 497.837 188.944 498.075 189.308 498.43C189.681 498.775 189.868 499.242 189.868 499.83C189.868 500.185 189.798 500.507 189.658 500.796C189.527 501.076 189.336 501.319 189.084 501.524C188.832 501.729 188.529 501.888 188.174 502C187.819 502.112 187.423 502.168 186.984 502.168ZM192.362 493.418C192.045 493.418 191.811 493.343 191.662 493.194C191.522 493.045 191.452 492.853 191.452 492.62V492.382C191.452 492.149 191.522 491.957 191.662 491.808C191.811 491.659 192.045 491.584 192.362 491.584C192.679 491.584 192.908 491.659 193.048 491.808C193.188 491.957 193.258 492.149 193.258 492.382V492.62C193.258 492.853 193.188 493.045 193.048 493.194C192.908 493.343 192.679 493.418 192.362 493.418ZM191.592 494.72H193.118V502H191.592V494.72ZM201.681 502.686C201.681 503.442 201.392 504.011 200.813 504.394C200.234 504.777 199.292 504.968 197.985 504.968C197.388 504.968 196.879 504.926 196.459 504.842C196.048 504.767 195.708 504.655 195.437 504.506C195.176 504.357 194.984 504.175 194.863 503.96C194.742 503.745 194.681 503.498 194.681 503.218C194.681 502.817 194.788 502.504 195.003 502.28C195.227 502.056 195.535 501.902 195.927 501.818V501.664C195.376 501.487 195.101 501.113 195.101 500.544C195.101 500.171 195.227 499.886 195.479 499.69C195.731 499.485 196.034 499.34 196.389 499.256V499.2C195.96 498.995 195.628 498.71 195.395 498.346C195.171 497.973 195.059 497.539 195.059 497.044C195.059 496.297 195.306 495.695 195.801 495.238C196.305 494.781 197.024 494.552 197.957 494.552C198.47 494.552 198.909 494.627 199.273 494.776V494.58C199.273 494.253 199.348 494.001 199.497 493.824C199.656 493.637 199.898 493.544 200.225 493.544H201.345V494.776H199.861V495.07C200.188 495.285 200.44 495.565 200.617 495.91C200.794 496.246 200.883 496.624 200.883 497.044C200.883 497.781 200.631 498.379 200.127 498.836C199.623 499.284 198.904 499.508 197.971 499.508C197.616 499.508 197.299 499.471 197.019 499.396C196.832 499.461 196.669 499.555 196.529 499.676C196.389 499.788 196.319 499.937 196.319 500.124C196.319 500.32 196.408 500.46 196.585 500.544C196.762 500.628 197.014 500.67 197.341 500.67H199.133C200.029 500.67 200.678 500.852 201.079 501.216C201.48 501.571 201.681 502.061 201.681 502.686ZM200.253 502.854C200.253 502.602 200.155 502.401 199.959 502.252C199.772 502.103 199.427 502.028 198.923 502.028H196.459C196.123 502.224 195.955 502.504 195.955 502.868C195.955 503.167 196.072 503.405 196.305 503.582C196.548 503.769 196.954 503.862 197.523 503.862H198.475C199.66 503.862 200.253 503.526 200.253 502.854ZM197.971 498.402C198.419 498.402 198.764 498.304 199.007 498.108C199.259 497.903 199.385 497.59 199.385 497.17V496.89C199.385 496.47 199.259 496.162 199.007 495.966C198.764 495.761 198.419 495.658 197.971 495.658C197.523 495.658 197.173 495.761 196.921 495.966C196.678 496.162 196.557 496.47 196.557 496.89V497.17C196.557 497.59 196.678 497.903 196.921 498.108C197.173 498.304 197.523 498.402 197.971 498.402ZM202.817 502V494.72H204.343V495.924H204.413C204.571 495.532 204.809 495.205 205.127 494.944C205.453 494.683 205.897 494.552 206.457 494.552C207.203 494.552 207.782 494.799 208.193 495.294C208.613 495.779 208.823 496.475 208.823 497.38V502H207.297V497.576C207.297 496.437 206.839 495.868 205.925 495.868C205.729 495.868 205.533 495.896 205.337 495.952C205.15 495.999 204.982 496.073 204.833 496.176C204.683 496.279 204.562 496.409 204.469 496.568C204.385 496.727 204.343 496.913 204.343 497.128V502H202.817ZM213.794 502.168C213.271 502.168 212.804 502.079 212.394 501.902C211.983 501.725 211.633 501.473 211.344 501.146C211.054 500.81 210.83 500.409 210.672 499.942C210.522 499.466 210.448 498.939 210.448 498.36C210.448 497.781 210.522 497.259 210.672 496.792C210.83 496.316 211.054 495.915 211.344 495.588C211.633 495.252 211.983 494.995 212.394 494.818C212.804 494.641 213.271 494.552 213.794 494.552C214.326 494.552 214.792 494.645 215.194 494.832C215.604 495.019 215.945 495.28 216.216 495.616C216.486 495.943 216.687 496.325 216.818 496.764C216.958 497.203 217.028 497.674 217.028 498.178V498.752H212.03V498.99C212.03 499.55 212.193 500.012 212.52 500.376C212.856 500.731 213.332 500.908 213.948 500.908C214.396 500.908 214.774 500.81 215.082 500.614C215.39 500.418 215.651 500.152 215.866 499.816L216.762 500.698C216.491 501.146 216.099 501.505 215.586 501.776C215.072 502.037 214.475 502.168 213.794 502.168ZM213.794 495.742C213.532 495.742 213.29 495.789 213.066 495.882C212.851 495.975 212.664 496.106 212.506 496.274C212.356 496.442 212.24 496.643 212.156 496.876C212.072 497.109 212.03 497.366 212.03 497.646V497.744H215.418V497.604C215.418 497.044 215.273 496.596 214.984 496.26C214.694 495.915 214.298 495.742 213.794 495.742ZM223.295 500.796H223.225C223.066 501.225 222.805 501.561 222.441 501.804C222.086 502.047 221.666 502.168 221.181 502.168C220.257 502.168 219.543 501.837 219.039 501.174C218.535 500.502 218.283 499.564 218.283 498.36C218.283 497.156 218.535 496.223 219.039 495.56C219.543 494.888 220.257 494.552 221.181 494.552C221.666 494.552 222.086 494.673 222.441 494.916C222.805 495.149 223.066 495.485 223.225 495.924H223.295V491.64H224.821V502H223.295V500.796ZM221.643 500.852C222.11 500.852 222.502 500.74 222.819 500.516C223.136 500.283 223.295 499.979 223.295 499.606V497.114C223.295 496.741 223.136 496.442 222.819 496.218C222.502 495.985 222.11 495.868 221.643 495.868C221.111 495.868 220.686 496.041 220.369 496.386C220.052 496.722 219.893 497.17 219.893 497.73V498.99C219.893 499.55 220.052 500.003 220.369 500.348C220.686 500.684 221.111 500.852 221.643 500.852ZM232.327 502C231.795 502 231.393 501.865 231.123 501.594C230.852 501.314 230.717 500.922 230.717 500.418V495.966H229.583V494.72H230.199C230.451 494.72 230.623 494.664 230.717 494.552C230.819 494.44 230.871 494.258 230.871 494.006V492.732H232.243V494.72H233.769V495.966H232.243V500.754H233.657V502H232.327ZM240.758 502C240.357 502 240.049 501.888 239.834 501.664C239.619 501.431 239.489 501.137 239.442 500.782H239.372C239.232 501.239 238.975 501.585 238.602 501.818C238.229 502.051 237.776 502.168 237.244 502.168C236.488 502.168 235.905 501.972 235.494 501.58C235.093 501.188 234.892 500.661 234.892 499.998C234.892 499.27 235.153 498.724 235.676 498.36C236.208 497.996 236.983 497.814 238 497.814H239.316V497.198C239.316 496.75 239.195 496.405 238.952 496.162C238.709 495.919 238.331 495.798 237.818 495.798C237.389 495.798 237.039 495.891 236.768 496.078C236.497 496.265 236.269 496.503 236.082 496.792L235.172 495.966C235.415 495.555 235.755 495.219 236.194 494.958C236.633 494.687 237.207 494.552 237.916 494.552C238.859 494.552 239.582 494.771 240.086 495.21C240.59 495.649 240.842 496.279 240.842 497.1V500.754H241.612V502H240.758ZM237.678 501.006C238.154 501.006 238.546 500.903 238.854 500.698C239.162 500.483 239.316 500.199 239.316 499.844V498.794H238.028C236.973 498.794 236.446 499.121 236.446 499.774V500.026C236.446 500.353 236.553 500.6 236.768 500.768C236.992 500.927 237.295 501.006 237.678 501.006ZM245.418 502.168C244.727 502.168 244.148 502.047 243.682 501.804C243.215 501.561 242.809 501.225 242.464 500.796L243.444 499.9C243.714 500.227 244.013 500.483 244.34 500.67C244.676 500.847 245.063 500.936 245.502 500.936C245.95 500.936 246.281 500.852 246.496 500.684C246.72 500.507 246.832 500.264 246.832 499.956C246.832 499.723 246.752 499.527 246.594 499.368C246.444 499.2 246.178 499.093 245.796 499.046L245.124 498.962C244.377 498.869 243.789 498.654 243.36 498.318C242.94 497.973 242.73 497.464 242.73 496.792C242.73 496.437 242.795 496.125 242.926 495.854C243.056 495.574 243.238 495.341 243.472 495.154C243.714 494.958 243.999 494.809 244.326 494.706C244.662 494.603 245.03 494.552 245.432 494.552C246.085 494.552 246.617 494.655 247.028 494.86C247.448 495.065 247.821 495.35 248.148 495.714L247.21 496.61C247.023 496.386 246.776 496.195 246.468 496.036C246.169 495.868 245.824 495.784 245.432 495.784C245.012 495.784 244.699 495.868 244.494 496.036C244.298 496.204 244.2 496.423 244.2 496.694C244.2 496.974 244.288 497.184 244.466 497.324C244.643 497.464 244.928 497.567 245.32 497.632L245.992 497.716C246.794 497.837 247.378 498.075 247.742 498.43C248.115 498.775 248.302 499.242 248.302 499.83C248.302 500.185 248.232 500.507 248.092 500.796C247.961 501.076 247.77 501.319 247.518 501.524C247.266 501.729 246.962 501.888 246.608 502C246.253 502.112 245.856 502.168 245.418 502.168ZM250.026 491.64H251.552V497.996H251.622L252.63 496.694L254.38 494.72H256.158L253.61 497.534L256.466 502H254.646L252.56 498.528L251.552 499.62V502H250.026V491.64ZM259.855 502.168C259.164 502.168 258.586 502.047 258.119 501.804C257.652 501.561 257.246 501.225 256.901 500.796L257.881 499.9C258.152 500.227 258.45 500.483 258.777 500.67C259.113 500.847 259.5 500.936 259.939 500.936C260.387 500.936 260.718 500.852 260.933 500.684C261.157 500.507 261.269 500.264 261.269 499.956C261.269 499.723 261.19 499.527 261.031 499.368C260.882 499.2 260.616 499.093 260.233 499.046L259.561 498.962C258.814 498.869 258.226 498.654 257.797 498.318C257.377 497.973 257.167 497.464 257.167 496.792C257.167 496.437 257.232 496.125 257.363 495.854C257.494 495.574 257.676 495.341 257.909 495.154C258.152 494.958 258.436 494.809 258.763 494.706C259.099 494.603 259.468 494.552 259.869 494.552C260.522 494.552 261.054 494.655 261.465 494.86C261.885 495.065 262.258 495.35 262.585 495.714L261.647 496.61C261.46 496.386 261.213 496.195 260.905 496.036C260.606 495.868 260.261 495.784 259.869 495.784C259.449 495.784 259.136 495.868 258.931 496.036C258.735 496.204 258.637 496.423 258.637 496.694C258.637 496.974 258.726 497.184 258.903 497.324C259.08 497.464 259.365 497.567 259.757 497.632L260.429 497.716C261.232 497.837 261.815 498.075 262.179 498.43C262.552 498.775 262.739 499.242 262.739 499.83C262.739 500.185 262.669 500.507 262.529 500.796C262.398 501.076 262.207 501.319 261.955 501.524C261.703 501.729 261.4 501.888 261.045 502C260.69 502.112 260.294 502.168 259.855 502.168ZM265.751 498.934V496.708C266.507 496.671 267.086 496.512 267.487 496.232C267.898 495.943 268.103 495.518 268.103 494.958V494.762C268.103 494.333 267.972 494.001 267.711 493.768C267.45 493.525 267.1 493.404 266.661 493.404C266.194 493.404 265.821 493.539 265.541 493.81C265.261 494.081 265.07 494.426 264.967 494.846L263.637 494.314C263.721 494.025 263.842 493.745 264.001 493.474C264.169 493.203 264.379 492.965 264.631 492.76C264.883 492.545 265.182 492.377 265.527 492.256C265.872 492.125 266.269 492.06 266.717 492.06C267.174 492.06 267.59 492.125 267.963 492.256C268.336 492.387 268.654 492.573 268.915 492.816C269.176 493.049 269.377 493.339 269.517 493.684C269.657 494.02 269.727 494.393 269.727 494.804C269.727 495.224 269.652 495.602 269.503 495.938C269.363 496.265 269.172 496.545 268.929 496.778C268.696 497.011 268.43 497.203 268.131 497.352C267.832 497.492 267.524 497.59 267.207 497.646V498.934H265.751ZM266.493 502.168C266.138 502.168 265.877 502.084 265.709 501.916C265.55 501.739 265.471 501.515 265.471 501.244V501.006C265.471 500.735 265.55 500.516 265.709 500.348C265.877 500.171 266.138 500.082 266.493 500.082C266.848 500.082 267.104 500.171 267.263 500.348C267.431 500.516 267.515 500.735 267.515 501.006V501.244C267.515 501.515 267.431 501.739 267.263 501.916C267.104 502.084 266.848 502.168 266.493 502.168Z" fill="#0D1427"/>
<rect x="40" y="516" width="460" height="56" rx="4" fill="#ECEDF3"/>
<path d="M492 568L496 564" stroke="#191822" stroke-width="0.5"/>
<path d="M488 568L496 560" stroke="#191822" stroke-width="0.5"/>
</svg>
