<svg width="540" height="600" viewBox="0 0 540 600" fill="none" xmlns="http://www.w3.org/2000/svg">
<rect width="540" height="600" fill="#F6F7FB"/>
<rect x="40" y="40" width="85" height="24" rx="6" fill="#E2E3EA"/>
<rect x="133" y="40" width="85" height="24" rx="6" fill="#3D68FB"/>
<rect x="226" y="40" width="85" height="24" rx="6" fill="#E2E3EA"/>
<rect x="319" y="40" width="85" height="24" rx="6" fill="#E2E3EA"/>
<rect x="40" y="110" width="300" height="18" rx="9" fill="#D4D6DF"/>
<path d="M41.032 182V173.624H42.388V180.8H45.796V182H41.032ZM51.6721 182C51.3281 182 51.0641 181.904 50.8801 181.712C50.6961 181.512 50.5841 181.26 50.5441 180.956H50.4841C50.3641 181.348 50.1441 181.644 49.8241 181.844C49.5041 182.044 49.1161 182.144 48.6601 182.144C48.0121 182.144 47.5121 181.976 47.1601 181.64C46.8161 181.304 46.6441 180.852 46.6441 180.284C46.6441 179.66 46.8681 179.192 47.3161 178.88C47.7721 178.568 48.4361 178.412 49.3081 178.412H50.4361V177.884C50.4361 177.5 50.3321 177.204 50.1241 176.996C49.9161 176.788 49.5921 176.684 49.1521 176.684C48.7841 176.684 48.4841 176.764 48.2521 176.924C48.0201 177.084 47.8241 177.288 47.6641 177.536L46.8841 176.828C47.0921 176.476 47.3841 176.188 47.7601 175.964C48.1361 175.732 48.6281 175.616 49.2361 175.616C50.0441 175.616 50.6641 175.804 51.0961 176.18C51.5281 176.556 51.7441 177.096 51.7441 177.8V180.932H52.4041V182H51.6721ZM49.0321 181.148C49.4401 181.148 49.7761 181.06 50.0401 180.884C50.3041 180.7 50.4361 180.456 50.4361 180.152V179.252H49.3321C48.4281 179.252 47.9761 179.532 47.9761 180.092V180.308C47.9761 180.588 48.0681 180.8 48.2521 180.944C48.4441 181.08 48.7041 181.148 49.0321 181.148ZM55.666 182.144C55.074 182.144 54.578 182.04 54.178 181.832C53.778 181.624 53.43 181.336 53.134 180.968L53.974 180.2C54.206 180.48 54.462 180.7 54.742 180.86C55.03 181.012 55.362 181.088 55.738 181.088C56.122 181.088 56.406 181.016 56.59 180.872C56.782 180.72 56.878 180.512 56.878 180.248C56.878 180.048 56.81 179.88 56.674 179.744C56.546 179.6 56.318 179.508 55.99 179.468L55.414 179.396C54.774 179.316 54.27 179.132 53.902 178.844C53.542 178.548 53.362 178.112 53.362 177.536C53.362 177.232 53.418 176.964 53.53 176.732C53.642 176.492 53.798 176.292 53.998 176.132C54.206 175.964 54.45 175.836 54.73 175.748C55.018 175.66 55.334 175.616 55.678 175.616C56.238 175.616 56.694 175.704 57.046 175.88C57.406 176.056 57.726 176.3 58.006 176.612L57.202 177.38C57.042 177.188 56.83 177.024 56.566 176.888C56.31 176.744 56.014 176.672 55.678 176.672C55.318 176.672 55.05 176.744 54.874 176.888C54.706 177.032 54.622 177.22 54.622 177.452C54.622 177.692 54.698 177.872 54.85 177.992C55.002 178.112 55.246 178.2 55.582 178.256L56.158 178.328C56.846 178.432 57.346 178.636 57.658 178.94C57.978 179.236 58.138 179.636 58.138 180.14C58.138 180.444 58.078 180.72 57.958 180.968C57.846 181.208 57.682 181.416 57.466 181.592C57.25 181.768 56.99 181.904 56.686 182C56.382 182.096 56.042 182.144 55.666 182.144ZM61.2617 182C60.8057 182 60.4617 181.884 60.2297 181.652C59.9977 181.412 59.8817 181.076 59.8817 180.644V176.828H58.9097V175.76H59.4377C59.6537 175.76 59.8017 175.712 59.8817 175.616C59.9697 175.52 60.0137 175.364 60.0137 175.148V174.056H61.1897V175.76H62.4977V176.828H61.1897V180.932H62.4017V182H61.2617ZM69.1044 177.368L68.1804 175.592H68.1444V182H66.8484V173.624H68.3604L71.0964 178.256L72.0204 180.032H72.0564V173.624H73.3524V182H71.8404L69.1044 177.368ZM79.8908 182C79.5468 182 79.2828 181.904 79.0988 181.712C78.9148 181.512 78.8028 181.26 78.7628 180.956H78.7028C78.5828 181.348 78.3628 181.644 78.0428 181.844C77.7228 182.044 77.3348 182.144 76.8788 182.144C76.2308 182.144 75.7308 181.976 75.3788 181.64C75.0348 181.304 74.8628 180.852 74.8628 180.284C74.8628 179.66 75.0868 179.192 75.5348 178.88C75.9908 178.568 76.6548 178.412 77.5268 178.412H78.6548V177.884C78.6548 177.5 78.5508 177.204 78.3428 176.996C78.1348 176.788 77.8108 176.684 77.3708 176.684C77.0028 176.684 76.7028 176.764 76.4708 176.924C76.2388 177.084 76.0428 177.288 75.8828 177.536L75.1028 176.828C75.3108 176.476 75.6028 176.188 75.9788 175.964C76.3548 175.732 76.8468 175.616 77.4548 175.616C78.2628 175.616 78.8828 175.804 79.3148 176.18C79.7468 176.556 79.9628 177.096 79.9628 177.8V180.932H80.6228V182H79.8908ZM77.2508 181.148C77.6588 181.148 77.9948 181.06 78.2588 180.884C78.5228 180.7 78.6548 180.456 78.6548 180.152V179.252H77.5508C76.6468 179.252 76.1948 179.532 76.1948 180.092V180.308C76.1948 180.588 76.2868 180.8 76.4708 180.944C76.6628 181.08 76.9228 181.148 77.2508 181.148ZM81.9048 182V175.76H83.2128V176.792H83.2728C83.3368 176.632 83.4128 176.48 83.5008 176.336C83.5968 176.192 83.7088 176.068 83.8368 175.964C83.9728 175.852 84.1288 175.768 84.3048 175.712C84.4888 175.648 84.7008 175.616 84.9408 175.616C85.3648 175.616 85.7408 175.72 86.0688 175.928C86.3968 176.136 86.6368 176.456 86.7888 176.888H86.8248C86.9368 176.536 87.1528 176.236 87.4728 175.988C87.7928 175.74 88.2048 175.616 88.7088 175.616C89.3328 175.616 89.8168 175.828 90.1608 176.252C90.5048 176.668 90.6768 177.264 90.6768 178.04V182H89.3688V178.196C89.3688 177.716 89.2768 177.356 89.0928 177.116C88.9088 176.868 88.6168 176.744 88.2168 176.744C88.0488 176.744 87.8888 176.768 87.7368 176.816C87.5848 176.856 87.4488 176.92 87.3288 177.008C87.2168 177.096 87.1248 177.208 87.0528 177.344C86.9808 177.48 86.9448 177.636 86.9448 177.812V182H85.6368V178.196C85.6368 177.228 85.2568 176.744 84.4967 176.744C84.3368 176.744 84.1768 176.768 84.0168 176.816C83.8648 176.856 83.7288 176.92 83.6088 177.008C83.4888 177.096 83.3928 177.208 83.3208 177.344C83.2488 177.48 83.2128 177.636 83.2128 177.812V182H81.9048ZM94.9348 182.144C94.4868 182.144 94.0868 182.068 93.7348 181.916C93.3828 181.764 93.0828 181.548 92.8348 181.268C92.5868 180.98 92.3948 180.636 92.2588 180.236C92.1308 179.828 92.0668 179.376 92.0668 178.88C92.0668 178.384 92.1308 177.936 92.2588 177.536C92.3948 177.128 92.5868 176.784 92.8348 176.504C93.0828 176.216 93.3828 175.996 93.7348 175.844C94.0868 175.692 94.4868 175.616 94.9348 175.616C95.3908 175.616 95.7908 175.696 96.1348 175.856C96.4868 176.016 96.7788 176.24 97.0108 176.528C97.2428 176.808 97.4148 177.136 97.5268 177.512C97.6468 177.888 97.7068 178.292 97.7068 178.724V179.216H93.4228V179.42C93.4228 179.9 93.5628 180.296 93.8428 180.608C94.1308 180.912 94.5388 181.064 95.0668 181.064C95.4508 181.064 95.7748 180.98 96.0388 180.812C96.3028 180.644 96.5268 180.416 96.7108 180.128L97.4788 180.884C97.2468 181.268 96.9108 181.576 96.4708 181.808C96.0308 182.032 95.5188 182.144 94.9348 182.144ZM94.9348 176.636C94.7108 176.636 94.5028 176.676 94.3108 176.756C94.1268 176.836 93.9668 176.948 93.8308 177.092C93.7028 177.236 93.6028 177.408 93.5308 177.608C93.4588 177.808 93.4228 178.028 93.4228 178.268V178.352H96.3268V178.232C96.3268 177.752 96.2028 177.368 95.9548 177.08C95.7068 176.784 95.3668 176.636 94.9348 176.636Z" fill="#0D1427"/>
<path d="M103.011 178.112L102.099 177.476L103.371 175.892L101.463 175.34L101.811 174.296L103.647 175.016L103.563 173.036H104.703L104.619 175.016L106.455 174.296L106.815 175.34L104.895 175.892L106.167 177.476L105.255 178.112L104.127 176.432L103.011 178.112Z" fill="#FC2F2F"/>
<g filter="url(#filter0_d_2_437)">
<rect x="40" y="194" width="220" height="36" rx="4" fill="white"/>
<rect x="40.5" y="194.5" width="219" height="35" rx="3.5" stroke="#3D68FB"/>
</g>
<path d="M281.032 182V173.624H282.388V180.8H285.796V182H281.032ZM291.672 182C291.328 182 291.064 181.904 290.88 181.712C290.696 181.512 290.584 181.26 290.544 180.956H290.484C290.364 181.348 290.144 181.644 289.824 181.844C289.504 182.044 289.116 182.144 288.66 182.144C288.012 182.144 287.512 181.976 287.16 181.64C286.816 181.304 286.644 180.852 286.644 180.284C286.644 179.66 286.868 179.192 287.316 178.88C287.772 178.568 288.436 178.412 289.308 178.412H290.436V177.884C290.436 177.5 290.332 177.204 290.124 176.996C289.916 176.788 289.592 176.684 289.152 176.684C288.784 176.684 288.484 176.764 288.252 176.924C288.02 177.084 287.824 177.288 287.664 177.536L286.884 176.828C287.092 176.476 287.384 176.188 287.76 175.964C288.136 175.732 288.628 175.616 289.236 175.616C290.044 175.616 290.664 175.804 291.096 176.18C291.528 176.556 291.744 177.096 291.744 177.8V180.932H292.404V182H291.672ZM289.032 181.148C289.44 181.148 289.776 181.06 290.04 180.884C290.304 180.7 290.436 180.456 290.436 180.152V179.252H289.332C288.428 179.252 287.976 179.532 287.976 180.092V180.308C287.976 180.588 288.068 180.8 288.252 180.944C288.444 181.08 288.704 181.148 289.032 181.148ZM295.666 182.144C295.074 182.144 294.578 182.04 294.178 181.832C293.778 181.624 293.43 181.336 293.134 180.968L293.974 180.2C294.206 180.48 294.462 180.7 294.742 180.86C295.03 181.012 295.362 181.088 295.738 181.088C296.122 181.088 296.406 181.016 296.59 180.872C296.782 180.72 296.878 180.512 296.878 180.248C296.878 180.048 296.81 179.88 296.674 179.744C296.546 179.6 296.318 179.508 295.99 179.468L295.414 179.396C294.774 179.316 294.27 179.132 293.902 178.844C293.542 178.548 293.362 178.112 293.362 177.536C293.362 177.232 293.418 176.964 293.53 176.732C293.642 176.492 293.798 176.292 293.998 176.132C294.206 175.964 294.45 175.836 294.73 175.748C295.018 175.66 295.334 175.616 295.678 175.616C296.238 175.616 296.694 175.704 297.046 175.88C297.406 176.056 297.726 176.3 298.006 176.612L297.202 177.38C297.042 177.188 296.83 177.024 296.566 176.888C296.31 176.744 296.014 176.672 295.678 176.672C295.318 176.672 295.05 176.744 294.874 176.888C294.706 177.032 294.622 177.22 294.622 177.452C294.622 177.692 294.698 177.872 294.85 177.992C295.002 178.112 295.246 178.2 295.582 178.256L296.158 178.328C296.846 178.432 297.346 178.636 297.658 178.94C297.978 179.236 298.138 179.636 298.138 180.14C298.138 180.444 298.078 180.72 297.958 180.968C297.846 181.208 297.682 181.416 297.466 181.592C297.25 181.768 296.99 181.904 296.686 182C296.382 182.096 296.042 182.144 295.666 182.144ZM301.262 182C300.806 182 300.462 181.884 300.23 181.652C299.998 181.412 299.882 181.076 299.882 180.644V176.828H298.91V175.76H299.438C299.654 175.76 299.802 175.712 299.882 175.616C299.97 175.52 300.014 175.364 300.014 175.148V174.056H301.19V175.76H302.498V176.828H301.19V180.932H302.402V182H301.262ZM309.104 177.368L308.18 175.592H308.144V182H306.848V173.624H308.36L311.096 178.256L312.02 180.032H312.056V173.624H313.352V182H311.84L309.104 177.368ZM319.891 182C319.547 182 319.283 181.904 319.099 181.712C318.915 181.512 318.803 181.26 318.763 180.956H318.703C318.583 181.348 318.363 181.644 318.043 181.844C317.723 182.044 317.335 182.144 316.879 182.144C316.231 182.144 315.731 181.976 315.379 181.64C315.035 181.304 314.863 180.852 314.863 180.284C314.863 179.66 315.087 179.192 315.535 178.88C315.991 178.568 316.655 178.412 317.527 178.412H318.655V177.884C318.655 177.5 318.551 177.204 318.343 176.996C318.135 176.788 317.811 176.684 317.371 176.684C317.003 176.684 316.703 176.764 316.471 176.924C316.239 177.084 316.043 177.288 315.883 177.536L315.103 176.828C315.311 176.476 315.603 176.188 315.979 175.964C316.355 175.732 316.847 175.616 317.455 175.616C318.263 175.616 318.883 175.804 319.315 176.18C319.747 176.556 319.963 177.096 319.963 177.8V180.932H320.623V182H319.891ZM317.251 181.148C317.659 181.148 317.995 181.06 318.259 180.884C318.523 180.7 318.655 180.456 318.655 180.152V179.252H317.551C316.647 179.252 316.195 179.532 316.195 180.092V180.308C316.195 180.588 316.287 180.8 316.471 180.944C316.663 181.08 316.923 181.148 317.251 181.148ZM321.905 182V175.76H323.213V176.792H323.273C323.337 176.632 323.413 176.48 323.501 176.336C323.597 176.192 323.709 176.068 323.837 175.964C323.973 175.852 324.129 175.768 324.305 175.712C324.489 175.648 324.701 175.616 324.941 175.616C325.365 175.616 325.741 175.72 326.069 175.928C326.397 176.136 326.637 176.456 326.789 176.888H326.825C326.937 176.536 327.153 176.236 327.473 175.988C327.793 175.74 328.205 175.616 328.709 175.616C329.333 175.616 329.817 175.828 330.161 176.252C330.505 176.668 330.677 177.264 330.677 178.04V182H329.369V178.196C329.369 177.716 329.277 177.356 329.093 177.116C328.909 176.868 328.617 176.744 328.217 176.744C328.049 176.744 327.889 176.768 327.737 176.816C327.585 176.856 327.449 176.92 327.329 177.008C327.217 177.096 327.125 177.208 327.053 177.344C326.981 177.48 326.945 177.636 326.945 177.812V182H325.637V178.196C325.637 177.228 325.257 176.744 324.497 176.744C324.337 176.744 324.177 176.768 324.017 176.816C323.865 176.856 323.729 176.92 323.609 177.008C323.489 177.096 323.393 177.208 323.321 177.344C323.249 177.48 323.213 177.636 323.213 177.812V182H321.905ZM334.935 182.144C334.487 182.144 334.087 182.068 333.735 181.916C333.383 181.764 333.083 181.548 332.835 181.268C332.587 180.98 332.395 180.636 332.259 180.236C332.131 179.828 332.067 179.376 332.067 178.88C332.067 178.384 332.131 177.936 332.259 177.536C332.395 177.128 332.587 176.784 332.835 176.504C333.083 176.216 333.383 175.996 333.735 175.844C334.087 175.692 334.487 175.616 334.935 175.616C335.391 175.616 335.791 175.696 336.135 175.856C336.487 176.016 336.779 176.24 337.011 176.528C337.243 176.808 337.415 177.136 337.527 177.512C337.647 177.888 337.707 178.292 337.707 178.724V179.216H333.423V179.42C333.423 179.9 333.563 180.296 333.843 180.608C334.131 180.912 334.539 181.064 335.067 181.064C335.451 181.064 335.775 180.98 336.039 180.812C336.303 180.644 336.527 180.416 336.711 180.128L337.479 180.884C337.247 181.268 336.911 181.576 336.471 181.808C336.031 182.032 335.519 182.144 334.935 182.144ZM334.935 176.636C334.711 176.636 334.503 176.676 334.311 176.756C334.127 176.836 333.967 176.948 333.831 177.092C333.703 177.236 333.603 177.408 333.531 177.608C333.459 177.808 333.423 178.028 333.423 178.268V178.352H336.327V178.232C336.327 177.752 336.203 177.368 335.955 177.08C335.707 176.784 335.367 176.636 334.935 176.636Z" fill="#0D1427"/>
<path d="M343.011 178.112L342.099 177.476L343.371 175.892L341.463 175.34L341.811 174.296L343.647 175.016L343.563 173.036H344.703L344.619 175.016L346.455 174.296L346.815 175.34L344.895 175.892L346.167 177.476L345.255 178.112L344.127 176.432L343.011 178.112Z" fill="#FC2F2F"/>
<rect x="280.5" y="194.5" width="219" height="35" rx="3.5" fill="white" stroke="#DADBDD"/>
<rect x="40" y="266" width="332" height="10" rx="5" fill="#EB9AD9"/>
<circle cx="49" cy="307" r="8.5" fill="white" stroke="#3D68FB"/>
<circle cx="49" cy="307" r="4.5" fill="#3D68FB" stroke="#3D68FB"/>
<rect x="68" y="302" width="173" height="10" rx="5" fill="#DFE1E9"/>
<circle cx="49" cy="337" r="8.5" fill="white" stroke="#BCBEC0"/>
<rect x="68" y="332" width="117" height="10" rx="5" fill="#DFE1E9"/>
<circle cx="289" cy="307" r="8.5" fill="white" stroke="#BCBEC0"/>
<rect x="308" y="302" width="80" height="10" rx="5" fill="#DFE1E9"/>
<line opacity="0.4" y1="83.5" x2="540" y2="83.5" stroke="#C9CBD3"/>
<rect x="40" y="382" width="295" height="10" rx="5" fill="#8FE07B"/>
<rect x="68" y="448" width="139" height="10" rx="5" fill="#9BB0FB"/>
<rect x="40" y="444" width="18" height="18" rx="4" fill="#3D68FB"/>
<path d="M53.5 450.3L47.3125 456.487L44.5 453.675" stroke="white" stroke-width="2" stroke-linecap="round" stroke-linejoin="round"/>
<rect x="68" y="418" width="103" height="10" rx="5" fill="#DFE1E9"/>
<rect x="40.5" y="414.5" width="17" height="17" rx="3.5" fill="white" stroke="#BCBEC0"/>
<rect x="68" y="508" width="123" height="10" rx="5" fill="#DFE1E9"/>
<rect x="40.5" y="504.5" width="17" height="17" rx="3.5" fill="white" stroke="#BCBEC0"/>
<rect x="308" y="448" width="53" height="10" rx="5" fill="#DFE1E9"/>
<rect x="280.5" y="444.5" width="17" height="17" rx="3.5" fill="white" stroke="#BCBEC0"/>
<rect x="308" y="508" width="42" height="10" rx="5" fill="#DFE1E9"/>
<rect x="280.5" y="504.5" width="17" height="17" rx="3.5" fill="white" stroke="#BCBEC0"/>
<rect x="308" y="418" width="76" height="10" rx="5" fill="#DFE1E9"/>
<rect x="280.5" y="414.5" width="17" height="17" rx="3.5" fill="white" stroke="#BCBEC0"/>
<rect x="68" y="538" width="94" height="10" rx="5" fill="#DFE1E9"/>
<rect x="40.5" y="534.5" width="17" height="17" rx="3.5" fill="white" stroke="#BCBEC0"/>
<rect x="68" y="478" width="75" height="10" rx="5" fill="#9BB0FB"/>
<rect x="40" y="474" width="18" height="18" rx="4" fill="#3D68FB"/>
<path d="M53.5 480.3L47.3125 486.487L44.5 483.675" stroke="white" stroke-width="2" stroke-linecap="round" stroke-linejoin="round"/>
<rect x="308" y="478" width="63" height="10" rx="5" fill="#9BB0FB"/>
<rect x="280" y="474" width="18" height="18" rx="4" fill="#3D68FB"/>
<path d="M293.5 480.3L287.312 486.487L284.5 483.675" stroke="white" stroke-width="2" stroke-linecap="round" stroke-linejoin="round"/>
<defs>
<filter id="filter0_d_2_437" x="37" y="191" width="226" height="42" filterUnits="userSpaceOnUse" color-interpolation-filters="sRGB">
<feFlood flood-opacity="0" result="BackgroundImageFix"/>
<feColorMatrix in="SourceAlpha" type="matrix" values="0 0 0 0 0 0 0 0 0 0 0 0 0 0 0 0 0 0 127 0" result="hardAlpha"/>
<feMorphology radius="3" operator="dilate" in="SourceAlpha" result="effect1_dropShadow_2_437"/>
<feOffset/>
<feComposite in2="hardAlpha" operator="out"/>
<feColorMatrix type="matrix" values="0 0 0 0 0.239216 0 0 0 0 0.407843 0 0 0 0 0.984314 0 0 0 0.15 0"/>
<feBlend mode="normal" in2="BackgroundImageFix" result="effect1_dropShadow_2_437"/>
<feBlend mode="normal" in="SourceGraphic" in2="effect1_dropShadow_2_437" result="shape"/>
</filter>
</defs>
</svg>
