<svg width="540" height="600" viewBox="0 0 540 600" fill="none" xmlns="http://www.w3.org/2000/svg">
<rect width="540" height="600" fill="white"/>
<rect x="40" y="40" width="85" height="24" rx="6" fill="#E2E3EA"/>
<rect x="133" y="40" width="85" height="24" rx="6" fill="#E2E3EA"/>
<rect x="226" y="40" width="85" height="24" rx="6" fill="#E2E3EA"/>
<rect x="319" y="40" width="85" height="24" rx="6" fill="#3D68FB"/>
<rect x="40" y="110" width="216" height="18" rx="9" fill="#D4D6DF"/>
<path d="M43.288 167.368L42.364 165.592H42.328V172H41.032V163.624H42.544L45.28 168.256L46.204 170.032H46.24V163.624H47.536V172H46.024L43.288 167.368ZM54.0744 172C53.7304 172 53.4664 171.904 53.2824 171.712C53.0984 171.512 52.9864 171.26 52.9464 170.956H52.8864C52.7664 171.348 52.5464 171.644 52.2264 171.844C51.9064 172.044 51.5184 172.144 51.0624 172.144C50.4144 172.144 49.9144 171.976 49.5624 171.64C49.2184 171.304 49.0464 170.852 49.0464 170.284C49.0464 169.66 49.2704 169.192 49.7184 168.88C50.1744 168.568 50.8384 168.412 51.7104 168.412H52.8384V167.884C52.8384 167.5 52.7344 167.204 52.5264 166.996C52.3184 166.788 51.9944 166.684 51.5544 166.684C51.1864 166.684 50.8864 166.764 50.6544 166.924C50.4224 167.084 50.2264 167.288 50.0664 167.536L49.2864 166.828C49.4944 166.476 49.7864 166.188 50.1624 165.964C50.5384 165.732 51.0304 165.616 51.6384 165.616C52.4464 165.616 53.0664 165.804 53.4984 166.18C53.9304 166.556 54.1464 167.096 54.1464 167.8V170.932H54.8064V172H54.0744ZM51.4344 171.148C51.8424 171.148 52.1784 171.06 52.4424 170.884C52.7064 170.7 52.8384 170.456 52.8384 170.152V169.252H51.7344C50.8304 169.252 50.3784 169.532 50.3784 170.092V170.308C50.3784 170.588 50.4704 170.8 50.6544 170.944C50.8464 171.08 51.1064 171.148 51.4344 171.148ZM56.0883 172V165.76H57.3963V166.792H57.4563C57.5203 166.632 57.5963 166.48 57.6843 166.336C57.7803 166.192 57.8923 166.068 58.0203 165.964C58.1563 165.852 58.3123 165.768 58.4883 165.712C58.6723 165.648 58.8843 165.616 59.1243 165.616C59.5483 165.616 59.9243 165.72 60.2523 165.928C60.5803 166.136 60.8203 166.456 60.9723 166.888H61.0083C61.1203 166.536 61.3363 166.236 61.6563 165.988C61.9763 165.74 62.3883 165.616 62.8923 165.616C63.5163 165.616 64.0003 165.828 64.3443 166.252C64.6883 166.668 64.8603 167.264 64.8603 168.04V172H63.5523V168.196C63.5523 167.716 63.4603 167.356 63.2763 167.116C63.0923 166.868 62.8003 166.744 62.4003 166.744C62.2323 166.744 62.0723 166.768 61.9203 166.816C61.7683 166.856 61.6323 166.92 61.5123 167.008C61.4003 167.096 61.3083 167.208 61.2363 167.344C61.1643 167.48 61.1283 167.636 61.1283 167.812V172H59.8203V168.196C59.8203 167.228 59.4403 166.744 58.6803 166.744C58.5203 166.744 58.3603 166.768 58.2003 166.816C58.0483 166.856 57.9123 166.92 57.7923 167.008C57.6723 167.096 57.5763 167.208 57.5043 167.344C57.4323 167.48 57.3963 167.636 57.3963 167.812V172H56.0883ZM69.1184 172.144C68.6704 172.144 68.2704 172.068 67.9184 171.916C67.5664 171.764 67.2664 171.548 67.0184 171.268C66.7704 170.98 66.5784 170.636 66.4424 170.236C66.3144 169.828 66.2504 169.376 66.2504 168.88C66.2504 168.384 66.3144 167.936 66.4424 167.536C66.5784 167.128 66.7704 166.784 67.0184 166.504C67.2664 166.216 67.5664 165.996 67.9184 165.844C68.2704 165.692 68.6704 165.616 69.1184 165.616C69.5744 165.616 69.9744 165.696 70.3184 165.856C70.6704 166.016 70.9624 166.24 71.1944 166.528C71.4264 166.808 71.5984 167.136 71.7104 167.512C71.8304 167.888 71.8904 168.292 71.8904 168.724V169.216H67.6064V169.42C67.6064 169.9 67.7464 170.296 68.0264 170.608C68.3144 170.912 68.7224 171.064 69.2504 171.064C69.6344 171.064 69.9584 170.98 70.2224 170.812C70.4864 170.644 70.7104 170.416 70.8944 170.128L71.6624 170.884C71.4304 171.268 71.0944 171.576 70.6544 171.808C70.2144 172.032 69.7024 172.144 69.1184 172.144ZM69.1184 166.636C68.8944 166.636 68.6864 166.676 68.4944 166.756C68.3104 166.836 68.1504 166.948 68.0144 167.092C67.8864 167.236 67.7864 167.408 67.7144 167.608C67.6424 167.808 67.6064 168.028 67.6064 168.268V168.352H70.5104V168.232C70.5104 167.752 70.3864 167.368 70.1384 167.08C69.8904 166.784 69.5504 166.636 69.1184 166.636Z" fill="#0D1427"/>
<rect x="40" y="184" width="144" height="36" rx="4" fill="#ECEDF3"/>
<rect x="192" y="184" width="144" height="36" rx="4" fill="#ECEDF3"/>
<path d="M362.264 172L361.508 169.732H358.376L357.644 172H356.264L359.12 163.624H360.824L363.68 172H362.264ZM359.972 164.872H359.912L358.7 168.568H361.172L359.972 164.872ZM370.353 172.588C370.353 173.236 370.105 173.724 369.609 174.052C369.113 174.38 368.305 174.544 367.185 174.544C366.673 174.544 366.237 174.508 365.877 174.436C365.525 174.372 365.233 174.276 365.001 174.148C364.777 174.02 364.613 173.864 364.509 173.68C364.405 173.496 364.353 173.284 364.353 173.044C364.353 172.7 364.445 172.432 364.629 172.24C364.821 172.048 365.085 171.916 365.421 171.844V171.712C364.949 171.56 364.713 171.24 364.713 170.752C364.713 170.432 364.821 170.188 365.037 170.02C365.253 169.844 365.513 169.72 365.817 169.648V169.6C365.449 169.424 365.165 169.18 364.965 168.868C364.773 168.548 364.677 168.176 364.677 167.752C364.677 167.112 364.889 166.596 365.313 166.204C365.745 165.812 366.361 165.616 367.161 165.616C367.601 165.616 367.977 165.68 368.289 165.808V165.64C368.289 165.36 368.353 165.144 368.481 164.992C368.617 164.832 368.825 164.752 369.105 164.752H370.065V165.808H368.793V166.06C369.073 166.244 369.289 166.484 369.441 166.78C369.593 167.068 369.669 167.392 369.669 167.752C369.669 168.384 369.453 168.896 369.021 169.288C368.589 169.672 367.973 169.864 367.173 169.864C366.869 169.864 366.597 169.832 366.357 169.768C366.197 169.824 366.057 169.904 365.937 170.008C365.817 170.104 365.757 170.232 365.757 170.392C365.757 170.56 365.833 170.68 365.985 170.752C366.137 170.824 366.353 170.86 366.633 170.86H368.169C368.937 170.86 369.493 171.016 369.837 171.328C370.181 171.632 370.353 172.052 370.353 172.588ZM369.129 172.732C369.129 172.516 369.045 172.344 368.877 172.216C368.717 172.088 368.421 172.024 367.989 172.024H365.877C365.589 172.192 365.445 172.432 365.445 172.744C365.445 173 365.545 173.204 365.745 173.356C365.953 173.516 366.301 173.596 366.789 173.596H367.605C368.621 173.596 369.129 173.308 369.129 172.732ZM367.173 168.916C367.557 168.916 367.853 168.832 368.061 168.664C368.277 168.488 368.385 168.22 368.385 167.86V167.62C368.385 167.26 368.277 166.996 368.061 166.828C367.853 166.652 367.557 166.564 367.173 166.564C366.789 166.564 366.489 166.652 366.273 166.828C366.065 166.996 365.961 167.26 365.961 167.62V167.86C365.961 168.22 366.065 168.488 366.273 168.664C366.489 168.832 366.789 168.916 367.173 168.916ZM373.704 172.144C373.256 172.144 372.856 172.068 372.504 171.916C372.152 171.764 371.852 171.548 371.604 171.268C371.356 170.98 371.164 170.636 371.028 170.236C370.9 169.828 370.836 169.376 370.836 168.88C370.836 168.384 370.9 167.936 371.028 167.536C371.164 167.128 371.356 166.784 371.604 166.504C371.852 166.216 372.152 165.996 372.504 165.844C372.856 165.692 373.256 165.616 373.704 165.616C374.16 165.616 374.56 165.696 374.904 165.856C375.256 166.016 375.548 166.24 375.78 166.528C376.012 166.808 376.184 167.136 376.296 167.512C376.416 167.888 376.476 168.292 376.476 168.724V169.216H372.192V169.42C372.192 169.9 372.332 170.296 372.612 170.608C372.9 170.912 373.308 171.064 373.836 171.064C374.22 171.064 374.544 170.98 374.808 170.812C375.072 170.644 375.296 170.416 375.48 170.128L376.248 170.884C376.016 171.268 375.68 171.576 375.24 171.808C374.8 172.032 374.288 172.144 373.704 172.144ZM373.704 166.636C373.48 166.636 373.272 166.676 373.08 166.756C372.896 166.836 372.736 166.948 372.6 167.092C372.472 167.236 372.372 167.408 372.3 167.608C372.228 167.808 372.192 168.028 372.192 168.268V168.352H375.096V168.232C375.096 167.752 374.972 167.368 374.724 167.08C374.476 166.784 374.136 166.636 373.704 166.636Z" fill="#0D1427"/>
<rect x="356" y="184" width="144" height="36" rx="4" fill="#ECEDF3"/>
<rect x="40" y="256" width="332" height="10" rx="5" fill="#D296EE"/>
<circle cx="49" cy="297" r="8.5" fill="white" stroke="#3D68FB"/>
<circle cx="49" cy="297" r="4.5" fill="#3D68FB" stroke="#3D68FB"/>
<rect x="68" y="292" width="60" height="10" rx="5" fill="#9BB0FB"/>
<circle cx="49" cy="327" r="8.5" fill="white" stroke="#BCBEC0"/>
<rect x="68" y="322" width="70" height="10" rx="5" fill="#DFE1E9"/>
<circle cx="274" cy="297" r="8.5" fill="white" stroke="#BCBEC0"/>
<rect x="293" y="292" width="50" height="10" rx="5" fill="#DFE1E9"/>
<circle cx="274" cy="327" r="8.5" fill="white" stroke="#BCBEC0"/>
<rect x="293" y="322" width="50" height="10" rx="5" fill="#DFE1E9"/>
<rect x="40" y="376" width="423" height="10" rx="5" fill="#95E0DC"/>
<circle cx="49" cy="417" r="8.5" fill="white" stroke="#BCBEC0"/>
<rect x="68" y="412" width="60" height="10" rx="5" fill="#DFE1E9"/>
<circle cx="49" cy="447" r="8.5" fill="white" stroke="#BCBEC0"/>
<rect x="68" y="442" width="60" height="10" rx="5" fill="#DFE1E9"/>
<circle cx="274" cy="417" r="8.5" fill="white" stroke="#BCBEC0"/>
<rect x="293" y="412" width="70" height="10" rx="5" fill="#DFE1E9"/>
<circle cx="274" cy="447" r="8.5" fill="white" stroke="#BCBEC0"/>
<rect x="293" y="442" width="70" height="10" rx="5" fill="#DFE1E9"/>
<rect x="40" y="492" width="253" height="10" rx="5" fill="#F2AC9C"/>
<circle cx="49" cy="533" r="8.5" fill="white" stroke="#BCBEC0"/>
<rect x="68" y="528" width="60" height="10" rx="5" fill="#DFE1E9"/>
<circle cx="49" cy="563" r="8.5" fill="white" stroke="#BCBEC0"/>
<rect x="68" y="558" width="60" height="10" rx="5" fill="#DFE1E9"/>
<circle cx="274" cy="533" r="8.5" fill="white" stroke="#BCBEC0"/>
<rect x="293" y="528" width="70" height="10" rx="5" fill="#DFE1E9"/>
<circle cx="274" cy="563" r="8.5" fill="white" stroke="#3D68FB"/>
<circle cx="274" cy="563" r="4.5" fill="#3D68FB" stroke="#3D68FB"/>
<rect x="293" y="558" width="60" height="10" rx="5" fill="#9BB0FB"/>
<line opacity="0.4" y1="83.5" x2="540" y2="83.5" stroke="#C9CBD3"/>
</svg>
